<svg width="1680" height="704" viewBox="0 0 1680 704" fill="none" xmlns="http://www.w3.org/2000/svg">
<g clip-path="url(#clip0_4261_17587)">
<path d="M2009.96 467.072C2010.28 450.211 2005.39 433.625 1992.9 418.142C1972.02 392.299 1937.12 377.052 1900.24 374.531L1900.32 349.357C1900.32 349.357 1900.32 349.633 1900.32 349.79C1900.48 335.253 1895.48 320.519 1884.72 307.242C1854.23 269.54 1789.3 257.682 1739.62 280.847L1355 460.217L1568.37 724.093L1946.1 547.953C1948.19 547.086 1950.28 546.219 1952.28 545.274C1954.41 544.289 1956.5 543.225 1958.51 542.161C1959.14 541.807 1959.77 541.452 1960.4 541.098C1961.78 540.349 1963.12 539.561 1964.46 538.773C1965.17 538.34 1965.84 537.907 1966.51 537.513C1967.77 536.725 1968.95 535.937 1970.17 535.109C1970.8 534.676 1971.43 534.243 1972.06 533.809C1972.38 533.612 1972.69 533.376 1972.97 533.179C1973.52 532.785 1974.03 532.312 1974.58 531.918C1975.76 531.012 1976.95 530.106 1978.09 529.161C1978.88 528.53 1979.63 527.861 1980.37 527.191C1981.44 526.245 1982.5 525.3 1983.49 524.354C1984.2 523.685 1984.9 522.975 1985.57 522.306C1986.56 521.321 1987.5 520.336 1988.41 519.312C1989.04 518.602 1989.67 517.933 1990.3 517.184C1991.21 516.12 1992.07 515.017 1992.94 513.954C1993.34 513.442 1993.77 512.969 1994.16 512.457C1994.28 512.299 1994.4 512.102 1994.52 511.945C1995.74 510.29 1996.88 508.635 1997.94 506.902C1998.1 506.665 1998.26 506.468 1998.42 506.232C1999.6 504.302 2000.7 502.332 2001.73 500.362C2002.04 499.771 2002.32 499.141 2002.59 498.55C2003.26 497.132 2003.93 495.713 2004.48 494.295C2004.8 493.547 2005.08 492.798 2005.35 492.049C2005.86 490.71 2006.3 489.371 2006.73 488.031C2006.85 487.598 2007.05 487.164 2007.16 486.731C2007.32 486.219 2007.44 485.707 2007.56 485.155C2007.72 484.643 2007.83 484.091 2007.95 483.579C2008.31 482.161 2008.58 480.703 2008.86 479.285C2008.9 479.009 2008.98 478.734 2009.02 478.458C2009.29 476.764 2009.53 475.03 2009.68 473.336C2009.72 472.864 2009.76 472.391 2009.8 471.918C2009.84 471.17 2009.92 470.382 2009.96 469.633C2009.96 468.806 2010 467.978 2010 467.112L2009.96 467.072Z" fill="#F7F7F7"/>
<path d="M1100.96 110.072C1101.28 93.2108 1096.39 76.625 1083.9 61.1424C1063.02 35.2985 1028.12 20.0522 991.242 17.5309L991.321 -7.64323C991.321 -7.64323 991.321 -7.36747 991.321 -7.20988C991.479 -21.7471 986.476 -36.4812 975.72 -49.7577C945.228 -87.4598 880.303 -99.318 830.624 -76.1531L446 103.217L659.369 367.093L1037.1 190.953C1039.19 190.086 1041.28 189.219 1043.28 188.274C1045.41 187.289 1047.5 186.225 1049.51 185.161C1050.14 184.807 1050.77 184.452 1051.4 184.098C1052.78 183.349 1054.12 182.561 1055.46 181.773C1056.17 181.34 1056.84 180.907 1057.51 180.513C1058.77 179.725 1059.95 178.937 1061.17 178.109C1061.8 177.676 1062.43 177.243 1063.06 176.809C1063.38 176.612 1063.69 176.376 1063.97 176.179C1064.52 175.785 1065.03 175.312 1065.58 174.918C1066.76 174.012 1067.95 173.106 1069.09 172.161C1069.88 171.53 1070.63 170.861 1071.37 170.191C1072.44 169.245 1073.5 168.3 1074.49 167.354C1075.2 166.685 1075.9 165.975 1076.57 165.306C1077.56 164.321 1078.5 163.336 1079.41 162.312C1080.04 161.602 1080.67 160.933 1081.3 160.184C1082.21 159.12 1083.07 158.017 1083.94 156.954C1084.34 156.442 1084.77 155.969 1085.16 155.457C1085.28 155.299 1085.4 155.102 1085.52 154.945C1086.74 153.29 1087.88 151.635 1088.94 149.902C1089.1 149.665 1089.26 149.468 1089.42 149.232C1090.6 147.302 1091.7 145.332 1092.73 143.362C1093.04 142.771 1093.32 142.141 1093.59 141.55C1094.26 140.132 1094.93 138.713 1095.48 137.295C1095.8 136.547 1096.08 135.798 1096.35 135.049C1096.86 133.71 1097.3 132.371 1097.73 131.031C1097.85 130.598 1098.05 130.164 1098.16 129.731C1098.32 129.219 1098.44 128.707 1098.56 128.155C1098.72 127.643 1098.83 127.091 1098.95 126.579C1099.31 125.161 1099.58 123.703 1099.86 122.285C1099.9 122.009 1099.98 121.734 1100.02 121.458C1100.29 119.764 1100.53 118.03 1100.68 116.336C1100.72 115.864 1100.76 115.391 1100.8 114.918C1100.84 114.17 1100.92 113.382 1100.96 112.633C1100.96 111.806 1101 110.978 1101 110.112L1100.96 110.072Z" fill="#F7F7F7"/>
<path d="M985.827 495.839C985.985 487.425 983.547 479.148 977.315 471.422C966.896 458.526 949.478 450.918 931.078 449.66L931.117 437.098C931.117 437.098 931.117 437.236 931.117 437.315C931.196 430.06 928.699 422.708 923.332 416.083C908.116 397.27 875.718 391.352 850.929 402.912L659 492.418L765.472 624.093L953.96 536.198C955.002 535.766 956.044 535.333 957.047 534.861C958.108 534.37 959.15 533.839 960.153 533.308C960.467 533.131 960.782 532.954 961.097 532.778C961.785 532.404 962.453 532.011 963.121 531.618C963.475 531.401 963.809 531.185 964.144 530.989C964.773 530.595 965.363 530.202 965.972 529.789C966.287 529.573 966.601 529.357 966.916 529.141C967.073 529.042 967.23 528.924 967.368 528.826C967.643 528.63 967.899 528.394 968.174 528.197C968.764 527.745 969.353 527.293 969.923 526.821C970.317 526.506 970.69 526.172 971.064 525.838C971.594 525.366 972.125 524.894 972.617 524.423C972.97 524.088 973.324 523.734 973.659 523.4C974.15 522.909 974.622 522.417 975.074 521.906C975.388 521.552 975.703 521.218 976.018 520.845C976.47 520.314 976.902 519.763 977.335 519.233C977.531 518.977 977.748 518.741 977.944 518.486C978.003 518.407 978.062 518.309 978.121 518.23C978.731 517.404 979.301 516.579 979.831 515.714C979.91 515.596 979.989 515.497 980.067 515.38C980.657 514.416 981.207 513.433 981.719 512.45C981.876 512.155 982.014 511.841 982.151 511.546C982.485 510.838 982.82 510.131 983.095 509.423C983.252 509.049 983.39 508.676 983.527 508.302C983.783 507.634 983.999 506.966 984.215 506.297C984.274 506.081 984.373 505.865 984.432 505.648C984.51 505.393 984.569 505.137 984.628 504.862C984.707 504.607 984.766 504.331 984.825 504.076C985.002 503.368 985.139 502.641 985.277 501.933C985.297 501.795 985.336 501.658 985.356 501.52C985.493 500.675 985.611 499.81 985.69 498.964C985.709 498.729 985.729 498.493 985.749 498.257C985.768 497.883 985.808 497.49 985.827 497.117C985.827 496.704 985.847 496.291 985.847 495.858L985.827 495.839Z" fill="#F7F7F7"/>
<path d="M1604.99 179.045C1605.09 173.609 1603.51 168.263 1599.49 163.272C1592.76 154.94 1581.51 150.025 1569.62 149.212L1569.64 141.097C1569.64 141.097 1569.64 141.186 1569.64 141.237C1569.69 136.55 1568.08 131.801 1564.61 127.521C1554.78 115.367 1533.85 111.544 1517.84 119.011L1393.85 176.835L1462.63 261.901L1584.4 205.119C1585.07 204.839 1585.75 204.56 1586.39 204.255C1587.08 203.937 1587.75 203.595 1588.4 203.252C1588.6 203.137 1588.81 203.023 1589.01 202.909C1589.46 202.667 1589.89 202.413 1590.32 202.159C1590.55 202.02 1590.76 201.88 1590.98 201.753C1591.39 201.499 1591.77 201.245 1592.16 200.978C1592.36 200.839 1592.57 200.699 1592.77 200.559C1592.87 200.496 1592.97 200.42 1593.06 200.356C1593.24 200.229 1593.41 200.077 1593.58 199.95C1593.96 199.658 1594.35 199.365 1594.71 199.061C1594.97 198.857 1595.21 198.642 1595.45 198.426C1595.79 198.121 1596.14 197.816 1596.45 197.511C1596.68 197.295 1596.91 197.067 1597.13 196.851C1597.44 196.533 1597.75 196.216 1598.04 195.886C1598.24 195.657 1598.45 195.441 1598.65 195.2C1598.94 194.857 1599.22 194.501 1599.5 194.158C1599.63 193.993 1599.77 193.841 1599.9 193.676C1599.93 193.625 1599.97 193.561 1600.01 193.511C1600.4 192.977 1600.77 192.444 1601.11 191.885C1601.17 191.809 1601.22 191.745 1601.27 191.669C1601.65 191.047 1602 190.412 1602.33 189.777C1602.44 189.586 1602.52 189.383 1602.61 189.193C1602.83 188.735 1603.04 188.278 1603.22 187.821C1603.32 187.58 1603.41 187.338 1603.5 187.097C1603.67 186.665 1603.81 186.233 1603.95 185.802C1603.98 185.662 1604.05 185.522 1604.09 185.383C1604.14 185.217 1604.18 185.052 1604.21 184.875C1604.26 184.709 1604.3 184.532 1604.34 184.367C1604.45 183.909 1604.54 183.439 1604.63 182.982C1604.65 182.893 1604.67 182.804 1604.68 182.716C1604.77 182.169 1604.85 181.611 1604.9 181.064C1604.91 180.912 1604.92 180.76 1604.94 180.607C1604.95 180.366 1604.98 180.112 1604.99 179.871C1604.99 179.604 1605 179.337 1605 179.058L1604.99 179.045Z" fill="#F7F7F7"/>
</g>
<defs>
<clipPath id="clip0_4261_17587">
<rect width="1680" height="704" fill="white"/>
</clipPath>
</defs>
</svg>
