<?xml version="1.0" encoding="utf-8"?>
<svg width="1680" height="768" viewBox="0 0 1680 768" fill="none" xmlns="http://www.w3.org/2000/svg" xmlns:bx="https://boxy-svg.com"><path d="M2009.96 531.072C2010.28 514.211 2005.39 497.625 1992.9 482.142C1972.02 456.299 1937.12 441.052 1900.24 438.531L1900.32 413.357C1900.32 413.357 1900.32 413.633 1900.32 413.79C1900.48 399.253 1895.48 384.519 1884.72 371.242C1854.23 333.54 1789.3 321.682 1739.62 344.847L1355 524.217L1568.37 788.093L1946.1 611.953C1948.19 611.086 1950.28 610.219 1952.28 609.274C1954.41 608.289 1956.5 607.225 1958.51 606.161C1959.14 605.807 1959.77 605.452 1960.4 605.098C1961.78 604.349 1963.12 603.561 1964.46 602.773C1965.17 602.34 1965.84 601.907 1966.51 601.513C1967.77 600.725 1968.95 599.937 1970.17 599.109C1970.8 598.676 1971.43 598.243 1972.06 597.809C1972.38 597.612 1972.69 597.376 1972.97 597.179C1973.52 596.785 1974.03 596.312 1974.58 595.918C1975.76 595.012 1976.95 594.106 1978.09 593.161C1978.88 592.53 1979.63 591.861 1980.37 591.191C1981.44 590.245 1982.5 589.3 1983.49 588.354C1984.2 587.685 1984.9 586.975 1985.57 586.306C1986.56 585.321 1987.5 584.336 1988.41 583.312C1989.04 582.602 1989.67 581.933 1990.3 581.184C1991.21 580.12 1992.07 579.017 1992.94 577.954C1993.34 577.442 1993.77 576.969 1994.16 576.457C1994.28 576.299 1994.4 576.102 1994.52 575.945C1995.74 574.29 1996.88 572.635 1997.94 570.902C1998.1 570.665 1998.26 570.468 1998.42 570.232C1999.6 568.302 2000.7 566.332 2001.73 564.362C2002.04 563.771 2002.32 563.141 2002.59 562.55C2003.26 561.132 2003.93 559.713 2004.48 558.295C2004.8 557.547 2005.08 556.798 2005.35 556.049C2005.86 554.71 2006.3 553.371 2006.73 552.031C2006.85 551.598 2007.05 551.164 2007.16 550.731C2007.32 550.219 2007.44 549.707 2007.56 549.155C2007.72 548.643 2007.83 548.091 2007.95 547.579C2008.31 546.161 2008.58 544.703 2008.86 543.285C2008.9 543.009 2008.98 542.734 2009.02 542.458C2009.29 540.764 2009.53 539.03 2009.68 537.336C2009.72 536.864 2009.76 536.391 2009.8 535.918C2009.84 535.17 2009.92 534.382 2009.96 533.633C2009.96 532.806 2010 531.978 2010 531.112L2009.96 531.072Z" fill="#F7F7F7" clip-path="url(#clip0_4120_34705)"/><path d="M1100.96 174.072C1101.28 157.211 1096.39 140.625 1083.9 125.142C1063.02 99.2985 1028.12 84.0522 991.242 81.5309L991.321 56.3568C991.321 56.3568 991.321 56.6325 991.321 56.7901C991.479 42.2529 986.476 27.5188 975.72 14.2423C945.228 -23.4598 880.303 -35.318 830.624 -12.1531L446 167.217L659.369 431.093L1037.1 254.953C1039.19 254.086 1041.28 253.219 1043.28 252.274C1045.41 251.289 1047.5 250.225 1049.51 249.161C1050.14 248.807 1050.77 248.452 1051.4 248.098C1052.78 247.349 1054.12 246.561 1055.46 245.773C1056.17 245.34 1056.84 244.907 1057.51 244.513C1058.77 243.725 1059.95 242.937 1061.17 242.109C1061.8 241.676 1062.43 241.243 1063.06 240.809C1063.38 240.612 1063.69 240.376 1063.97 240.179C1064.52 239.785 1065.03 239.312 1065.58 238.918C1066.76 238.012 1067.95 237.106 1069.09 236.161C1069.88 235.53 1070.63 234.861 1071.37 234.191C1072.44 233.245 1073.5 232.3 1074.49 231.354C1075.2 230.685 1075.9 229.975 1076.57 229.306C1077.56 228.321 1078.5 227.336 1079.41 226.312C1080.04 225.602 1080.67 224.933 1081.3 224.184C1082.21 223.12 1083.07 222.017 1083.94 220.954C1084.34 220.442 1084.77 219.969 1085.16 219.457C1085.28 219.299 1085.4 219.102 1085.52 218.945C1086.74 217.29 1087.88 215.635 1088.94 213.902C1089.1 213.665 1089.26 213.468 1089.42 213.232C1090.6 211.302 1091.7 209.332 1092.73 207.362C1093.04 206.771 1093.32 206.141 1093.59 205.55C1094.26 204.132 1094.93 202.713 1095.48 201.295C1095.8 200.547 1096.08 199.798 1096.35 199.049C1096.86 197.71 1097.3 196.371 1097.73 195.031C1097.85 194.598 1098.05 194.164 1098.16 193.731C1098.32 193.219 1098.44 192.707 1098.56 192.155C1098.72 191.643 1098.83 191.091 1098.95 190.579C1099.31 189.161 1099.58 187.703 1099.86 186.285C1099.9 186.009 1099.98 185.734 1100.02 185.458C1100.29 183.764 1100.53 182.03 1100.68 180.336C1100.72 179.864 1100.76 179.391 1100.8 178.918C1100.84 178.17 1100.92 177.382 1100.96 176.633C1100.96 175.806 1101 174.978 1101 174.112L1100.96 174.072Z" fill="#F7F7F7" clip-path="url(#clip0_4120_34705)"/><path d="M985.827 559.839C985.985 551.425 983.547 543.148 977.315 535.422C966.896 522.526 949.478 514.918 931.078 513.66L931.117 501.098C931.117 501.098 931.117 501.236 931.117 501.315C931.196 494.06 928.699 486.708 923.332 480.083C908.116 461.27 875.718 455.352 850.929 466.912L659 556.418L765.472 688.093L953.96 600.198C955.002 599.766 956.044 599.333 957.047 598.861C958.108 598.37 959.15 597.839 960.153 597.308C960.467 597.131 960.782 596.954 961.097 596.778C961.785 596.404 962.453 596.011 963.121 595.618C963.475 595.401 963.809 595.185 964.144 594.989C964.773 594.595 965.363 594.202 965.972 593.789C966.287 593.573 966.601 593.357 966.916 593.141C967.073 593.042 967.23 592.924 967.368 592.826C967.643 592.63 967.899 592.394 968.174 592.197C968.764 591.745 969.353 591.293 969.923 590.821C970.317 590.506 970.69 590.172 971.064 589.838C971.594 589.366 972.125 588.894 972.617 588.423C972.97 588.088 973.324 587.734 973.659 587.4C974.15 586.909 974.622 586.417 975.074 585.906C975.388 585.552 975.703 585.218 976.018 584.845C976.47 584.314 976.902 583.763 977.335 583.233C977.531 582.977 977.748 582.741 977.944 582.486C978.003 582.407 978.062 582.309 978.121 582.23C978.731 581.404 979.301 580.579 979.831 579.714C979.91 579.596 979.989 579.497 980.067 579.38C980.657 578.416 981.207 577.433 981.719 576.45C981.876 576.155 982.014 575.841 982.151 575.546C982.485 574.838 982.82 574.131 983.095 573.423C983.252 573.049 983.39 572.676 983.527 572.302C983.783 571.634 983.999 570.966 984.215 570.297C984.274 570.081 984.373 569.865 984.432 569.648C984.51 569.393 984.569 569.137 984.628 568.862C984.707 568.607 984.766 568.331 984.825 568.076C985.002 567.368 985.139 566.641 985.277 565.933C985.297 565.795 985.336 565.658 985.356 565.52C985.493 564.675 985.611 563.81 985.69 562.964C985.709 562.729 985.729 562.493 985.749 562.257C985.768 561.883 985.808 561.49 985.827 561.117C985.827 560.704 985.847 560.291 985.847 559.858L985.827 559.839Z" fill="#F7F7F7" clip-path="url(#clip0_4120_34705)"/><path d="M1604.99 243.045C1605.09 237.609 1603.51 232.263 1599.49 227.272C1592.76 218.94 1581.51 214.025 1569.62 213.212L1569.64 205.097C1569.64 205.097 1569.64 205.186 1569.64 205.237C1569.69 200.55 1568.08 195.801 1564.61 191.521C1554.78 179.367 1533.85 175.544 1517.84 183.011L1393.85 240.835L1462.63 325.901L1584.4 269.119C1585.07 268.839 1585.75 268.56 1586.39 268.255C1587.08 267.937 1587.75 267.595 1588.4 267.252C1588.6 267.137 1588.81 267.023 1589.01 266.909C1589.46 266.667 1589.89 266.413 1590.32 266.159C1590.55 266.02 1590.76 265.88 1590.98 265.753C1591.39 265.499 1591.77 265.245 1592.16 264.978C1592.36 264.839 1592.57 264.699 1592.77 264.559C1592.87 264.496 1592.97 264.42 1593.06 264.356C1593.24 264.229 1593.41 264.077 1593.58 263.95C1593.96 263.658 1594.35 263.365 1594.71 263.061C1594.97 262.857 1595.21 262.642 1595.45 262.426C1595.79 262.121 1596.14 261.816 1596.45 261.511C1596.68 261.295 1596.91 261.067 1597.13 260.851C1597.44 260.533 1597.75 260.216 1598.04 259.886C1598.24 259.657 1598.45 259.441 1598.65 259.2C1598.94 258.857 1599.22 258.501 1599.5 258.158C1599.63 257.993 1599.77 257.841 1599.9 257.676C1599.93 257.625 1599.97 257.561 1600.01 257.511C1600.4 256.977 1600.77 256.444 1601.11 255.885C1601.17 255.809 1601.22 255.745 1601.27 255.669C1601.65 255.047 1602 254.412 1602.33 253.777C1602.44 253.586 1602.52 253.383 1602.61 253.193C1602.83 252.735 1603.04 252.278 1603.22 251.821C1603.32 251.58 1603.41 251.338 1603.5 251.097C1603.67 250.665 1603.81 250.233 1603.95 249.802C1603.98 249.662 1604.05 249.522 1604.09 249.383C1604.14 249.217 1604.18 249.052 1604.21 248.875C1604.26 248.709 1604.3 248.532 1604.34 248.367C1604.45 247.909 1604.54 247.439 1604.63 246.982C1604.65 246.893 1604.67 246.804 1604.68 246.716C1604.77 246.169 1604.85 245.611 1604.9 245.064C1604.91 244.912 1604.92 244.76 1604.94 244.607C1604.95 244.366 1604.98 244.112 1604.99 243.871C1604.99 243.604 1605 243.337 1605 243.058L1604.99 243.045Z" fill="#F7F7F7" clip-path="url(#clip0_4120_34705)"/><path d="M67 32H85" stroke="white" stroke-linecap="round" stroke-linejoin="round" clip-path="url(#clip0_4120_34705)"/><path d="M67 26H85" stroke="white" stroke-linecap="round" stroke-linejoin="round" clip-path="url(#clip0_4120_34705)"/><path d="M67 38H85" stroke="white" stroke-linecap="round" stroke-linejoin="round" clip-path="url(#clip0_4120_34705)"/><path d="M120.984 36V27.42H124.056C125.82 27.42 126.864 28.092 126.864 29.652V29.7C126.864 30.552 126.48 31.224 125.508 31.524C126.672 31.776 127.224 32.412 127.224 33.552V33.6C127.224 35.196 126.168 36 124.284 36H120.984ZM122.544 31.032H123.864C124.92 31.032 125.328 30.648 125.328 29.772V29.724C125.328 28.908 124.86 28.56 123.84 28.56H122.544V31.032ZM122.544 34.86H124.092C125.16 34.86 125.652 34.38 125.652 33.492V33.444C125.652 32.556 125.16 32.112 123.984 32.112H122.544V34.86ZM134.059 36.12C131.431 36.12 129.715 34.236 129.715 31.764V31.668C129.715 29.16 131.515 27.3 134.059 27.3C136.615 27.3 138.379 29.112 138.379 31.632V31.728C138.379 34.236 136.663 36.12 134.059 36.12ZM134.083 34.836C135.703 34.836 136.723 33.6 136.723 31.74V31.644C136.723 29.88 135.739 28.572 134.059 28.572C132.379 28.572 131.383 29.808 131.383 31.656V31.752C131.383 33.624 132.523 34.836 134.083 34.836ZM145.272 36.12C142.644 36.12 140.928 34.236 140.928 31.764V31.668C140.928 29.16 142.728 27.3 145.272 27.3C147.828 27.3 149.592 29.112 149.592 31.632V31.728C149.592 34.236 147.876 36.12 145.272 36.12ZM145.296 34.836C146.916 34.836 147.936 33.6 147.936 31.74V31.644C147.936 29.88 146.952 28.572 145.272 28.572C143.592 28.572 142.596 29.808 142.596 31.656V31.752C142.596 33.624 143.736 34.836 145.296 34.836ZM152.574 36V27.42H154.17V31.308L157.458 27.42H159.174L155.622 31.512L159.354 36H157.47L154.17 31.992V36H152.574ZM164.547 36.12C162.207 36.12 161.223 34.956 161.103 33.336H162.639C162.747 34.2 163.095 34.92 164.547 34.92C165.495 34.92 166.167 34.392 166.167 33.6C166.167 32.808 165.771 32.508 164.379 32.28C162.327 32.004 161.355 31.38 161.355 29.772C161.355 28.368 162.555 27.312 164.343 27.312C166.191 27.312 167.295 28.152 167.463 29.796H165.999C165.843 28.896 165.327 28.512 164.343 28.512C163.371 28.512 162.867 28.98 162.867 29.64C162.867 30.336 163.155 30.684 164.643 30.9C166.659 31.176 167.703 31.752 167.703 33.468C167.703 34.956 166.443 36.12 164.547 36.12ZM174.327 36L177.195 27.42H179.283L182.115 36H180.459L179.775 33.876H176.499L175.827 36H174.327ZM178.143 28.728L176.871 32.712H179.403L178.143 28.728ZM184.865 36V27.42H187.937C189.701 27.42 190.745 28.092 190.745 29.652V29.7C190.745 30.552 190.361 31.224 189.389 31.524C190.553 31.776 191.105 32.412 191.105 33.552V33.6C191.105 35.196 190.049 36 188.165 36H184.865ZM186.425 31.032H187.745C188.801 31.032 189.209 30.648 189.209 29.772V29.724C189.209 28.908 188.741 28.56 187.721 28.56H186.425V31.032ZM186.425 34.86H187.973C189.041 34.86 189.533 34.38 189.533 33.492V33.444C189.533 32.556 189.041 32.112 187.865 32.112H186.425V34.86ZM197.939 36.12C195.311 36.12 193.595 34.236 193.595 31.764V31.668C193.595 29.16 195.395 27.3 197.939 27.3C200.495 27.3 202.259 29.112 202.259 31.632V31.728C202.259 34.236 200.543 36.12 197.939 36.12ZM197.963 34.836C199.583 34.836 200.603 33.6 200.603 31.74V31.644C200.603 29.88 199.619 28.572 197.939 28.572C196.259 28.572 195.263 29.808 195.263 31.656V31.752C195.263 33.624 196.403 34.836 197.963 34.836ZM208.541 36.12C206.393 36.12 205.169 34.944 205.169 32.736V27.42H206.777V32.616C206.777 34.188 207.281 34.836 208.553 34.836C209.789 34.836 210.413 34.284 210.413 32.508V27.42H212.021V32.64C212.021 34.884 210.809 36.12 208.541 36.12ZM217.069 36V28.68H214.681V27.42H221.065V28.68H218.677V36H217.069ZM228.088 36V27.42H233.404V28.692H229.684V31.248H232.612V32.484H229.684V36H228.088ZM240.026 36.12C237.398 36.12 235.682 34.236 235.682 31.764V31.668C235.682 29.16 237.482 27.3 240.026 27.3C242.582 27.3 244.346 29.112 244.346 31.632V31.728C244.346 34.236 242.63 36.12 240.026 36.12ZM240.05 34.836C241.67 34.836 242.69 33.6 242.69 31.74V31.644C242.69 29.88 241.706 28.572 240.026 28.572C238.346 28.572 237.35 29.808 237.35 31.656V31.752C237.35 33.624 238.49 34.836 240.05 34.836ZM251.24 36.12C248.612 36.12 246.896 34.236 246.896 31.764V31.668C246.896 29.16 248.696 27.3 251.24 27.3C253.796 27.3 255.56 29.112 255.56 31.632V31.728C255.56 34.236 253.844 36.12 251.24 36.12ZM251.264 34.836C252.884 34.836 253.904 33.6 253.904 31.74V31.644C253.904 29.88 252.92 28.572 251.24 28.572C249.56 28.572 248.564 29.808 248.564 31.656V31.752C248.564 33.624 249.704 34.836 251.264 34.836ZM258.541 36V27.42H261.145C264.133 27.42 265.585 29.124 265.585 31.62V31.728C265.585 34.224 264.133 36 261.121 36H258.541ZM260.137 34.74H261.073C262.993 34.74 263.917 33.636 263.917 31.74V31.644C263.917 29.796 263.077 28.68 261.061 28.68H260.137V34.74Z" fill="white" clip-path="url(#clip0_4120_34705)"/><path d="M1517 32H1531" stroke="white" stroke-linecap="round" stroke-linejoin="round" clip-path="url(#clip0_4120_34705)"/><path d="M1563 39C1567.42 39 1571 35.4183 1571 31C1571 26.5817 1567.42 23 1563 23C1558.58 23 1555 26.5817 1555 31C1555 35.4183 1558.58 39 1563 39Z" stroke="white" stroke-linecap="round" stroke-linejoin="round" clip-path="url(#clip0_4120_34705)"/><path d="M1573 41.0004L1568.65 36.6504" stroke="white" stroke-linecap="round" stroke-linejoin="round" clip-path="url(#clip0_4120_34705)"/><path d="M1612 41V39C1612 37.9391 1611.58 36.9217 1610.83 36.1716C1610.08 35.4214 1609.06 35 1608 35H1600C1598.94 35 1597.92 35.4214 1597.17 36.1716C1596.42 36.9217 1596 37.9391 1596 39V41" stroke="white" stroke-linecap="round" stroke-linejoin="round" clip-path="url(#clip0_4120_34705)"/><path d="M1604 31C1606.21 31 1608 29.2091 1608 27C1608 24.7909 1606.21 23 1604 23C1601.79 23 1600 24.7909 1600 27C1600 29.2091 1601.79 31 1604 31Z" stroke="white" stroke-linecap="round" stroke-linejoin="round" clip-path="url(#clip0_4120_34705)"/><g clip-path="url(#clip1_4120_34705)"><path d="M1289.03 287.974C1289.03 284.389 1288.2 281.981 1286 279.26C1282.31 274.708 1276.14 272.03 1269.64 271.581L1269.66 267.148C1269.66 267.148 1269.66 267.198 1269.66 267.224C1269.68 264.664 1268.8 262.07 1266.9 259.731C1261.51 253.094 1250.04 251.008 1241.26 255.086L1173.33 286.669V331.653L1211.01 378.112L1277.73 346.005C1278.1 345.853 1278.47 345.7 1278.82 345.539C1279.2 345.361 1279.56 345.183 1279.92 344.988C1280.03 344.929 1280.14 344.861 1280.25 344.802C1280.49 344.666 1280.74 344.53 1280.97 344.395C1281.09 344.318 1281.21 344.242 1281.33 344.166C1281.55 344.03 1281.77 343.886 1281.98 343.742C1282.09 343.666 1282.2 343.589 1282.31 343.513C1282.36 343.479 1282.42 343.437 1282.47 343.403C1282.57 343.327 1282.66 343.25 1282.75 343.183C1282.96 343.022 1283.17 342.86 1283.37 342.699C1283.51 342.589 1283.64 342.471 1283.77 342.352C1283.96 342.191 1284.15 342.021 1284.32 341.852C1284.45 341.733 1284.57 341.614 1284.7 341.487C1284.87 341.318 1285.04 341.14 1285.2 340.962C1285.31 340.835 1285.43 340.716 1285.53 340.589C1285.69 340.402 1285.85 340.207 1286 340.021C1286.07 339.936 1286.14 339.843 1286.21 339.758C1286.24 339.724 1286.26 339.699 1286.28 339.665C1286.49 339.377 1286.7 339.08 1286.88 338.783C1286.91 338.741 1286.94 338.707 1286.96 338.665C1287.17 338.326 1287.37 337.978 1287.55 337.631C1287.6 337.52 1287.65 337.419 1287.7 337.308C1287.82 337.063 1287.93 336.808 1288.04 336.562C1288.09 336.427 1288.14 336.3 1288.19 336.164C1288.28 335.927 1288.36 335.698 1288.43 335.461C1288.46 335.384 1288.49 335.308 1288.51 335.232C1288.53 335.138 1288.55 335.045 1288.58 334.96C1288.6 334.867 1288.63 334.774 1288.64 334.681C1288.7 334.426 1288.76 334.172 1288.81 333.926C1288.81 333.875 1288.82 333.825 1288.83 333.782C1288.88 333.486 1288.92 333.18 1288.95 332.875C1288.95 332.79 1288.96 332.714 1288.97 332.629C1288.98 332.494 1288.99 332.358 1288.99 332.223C1288.99 332.078 1289 331.926 1289 331.782C1289 331.782 1289.02 287.932 1289.02 287.991L1289.03 287.974Z" fill="#1D1D1B"/><path fill-rule="evenodd" clip-rule="evenodd" d="M1224.48 302.89C1224.48 300.352 1222.43 298.553 1218.68 298.553C1214.9 298.553 1212.82 300.335 1212.82 302.89C1212.82 305.445 1214.93 307.227 1218.68 307.227C1222.43 307.227 1224.48 305.428 1224.48 302.89ZM1221.69 302.89C1221.69 304.257 1220.65 305.089 1218.68 305.089C1216.66 305.089 1215.61 304.257 1215.61 302.89C1215.61 301.524 1216.7 300.692 1218.68 300.692C1220.65 300.692 1221.69 301.524 1221.69 302.89ZM1206.71 298.731H1200.28H1200.27V307.058H1207.04C1208.96 307.058 1210.26 306.048 1210.26 304.69C1210.26 303.799 1209.65 303.069 1208.63 302.661C1209.41 302.313 1209.87 301.702 1209.87 300.921C1209.87 299.691 1208.66 298.731 1206.71 298.731ZM1207.2 301.295C1207.2 301.77 1206.89 301.94 1206.27 301.94H1203.08V300.692H1206.27C1206.88 300.692 1207.2 300.853 1207.2 301.295ZM1207.47 304.367C1207.47 304.843 1207.11 305.089 1206.44 305.089H1203.07V303.604H1206.44C1207.11 303.604 1207.47 303.858 1207.47 304.367ZM1232.94 298.553C1236.69 298.553 1238.74 300.352 1238.74 302.89C1238.74 305.428 1236.69 307.227 1232.94 307.227C1229.19 307.227 1227.08 305.445 1227.08 302.89C1227.08 300.335 1229.16 298.553 1232.94 298.553ZM1232.94 305.089C1234.91 305.089 1235.95 304.257 1235.95 302.89C1235.95 301.524 1234.91 300.692 1232.94 300.692C1230.96 300.692 1229.87 301.524 1229.87 302.89C1229.87 304.257 1230.92 305.089 1232.94 305.089ZM1244.39 298.731H1241.59V307.058H1244.39V304.665L1245.43 303.926L1248.84 307.05H1252.69L1247.59 302.415L1252.83 298.731H1248.65L1244.39 301.719V298.731ZM1257.77 304.231C1257.79 304.885 1258.63 305.411 1260.12 305.411C1261.46 305.411 1262.26 305.207 1262.26 304.639C1262.26 304.172 1261.72 304.019 1259.87 303.917C1256.67 303.731 1254.99 302.907 1254.99 301.159C1254.99 299.41 1257.01 298.57 1259.91 298.57C1262.81 298.57 1264.85 299.707 1264.85 301.277H1262.02C1261.97 300.794 1261.08 300.42 1259.91 300.42C1258.67 300.42 1257.86 300.607 1257.86 301.082C1257.86 301.413 1258.38 301.566 1260.27 301.676C1263.64 301.863 1265.18 302.72 1265.18 304.494C1265.18 306.447 1263.05 307.245 1259.97 307.245C1256.89 307.245 1254.97 306.082 1254.97 304.24H1257.77V304.231ZM1207.48 311.132H1204.19L1199.69 319.45H1202.62L1203.4 317.973H1208.26L1209.04 319.45H1211.98L1207.48 311.132ZM1205.84 313.407L1207.19 315.962H1204.48L1205.84 313.407ZM1214.49 311.132H1220.92C1222.87 311.132 1224.08 312.091 1224.08 313.322C1224.08 314.103 1223.62 314.714 1222.84 315.053C1223.86 315.461 1224.47 316.191 1224.47 317.091C1224.47 318.449 1223.16 319.459 1221.25 319.459H1214.48V311.14L1214.49 311.132ZM1220.48 314.34C1221.1 314.34 1221.4 314.171 1221.4 313.695C1221.4 313.254 1221.09 313.093 1220.48 313.093H1217.29V314.34H1220.48ZM1220.65 317.49C1221.32 317.49 1221.68 317.243 1221.68 316.768C1221.68 316.259 1221.32 316.004 1220.65 316.004H1217.28V317.49H1220.65ZM1238.69 315.291C1238.69 312.753 1236.63 310.953 1232.88 310.953C1229.11 310.953 1227.02 312.736 1227.02 315.291C1227.02 317.846 1229.13 319.628 1232.88 319.628C1236.63 319.628 1238.69 317.829 1238.69 315.291ZM1235.9 315.299C1235.9 316.666 1234.86 317.498 1232.88 317.498C1230.87 317.498 1229.81 316.666 1229.81 315.299C1229.81 313.933 1230.91 313.101 1232.88 313.101C1234.86 313.101 1235.9 313.933 1235.9 315.299ZM1241.47 311.132H1244.27V315.503C1244.27 316.683 1245.14 317.498 1246.69 317.498C1248.25 317.498 1249.09 316.692 1249.09 315.503V311.132H1251.89V315.707C1251.89 318.075 1249.86 319.645 1246.7 319.645C1243.55 319.645 1241.47 318.075 1241.47 315.707V311.132ZM1264.64 311.132H1254.4V313.271H1258.12V319.45H1260.92V313.271H1264.64V311.132ZM1200.28 323.533H1209.51V325.672H1203.08V326.861H1208.74V328.881H1203.08V331.851H1200.28V323.533ZM1223.73 327.693C1223.73 325.155 1221.67 323.355 1217.92 323.355C1214.14 323.355 1212.06 325.138 1212.06 327.693C1212.06 330.248 1214.17 332.03 1217.92 332.03C1221.67 332.03 1223.73 330.231 1223.73 327.693ZM1220.94 327.693C1220.94 329.059 1219.89 329.891 1217.92 329.891C1215.9 329.891 1214.85 329.059 1214.85 327.693C1214.85 326.326 1215.95 325.494 1217.92 325.494C1219.89 325.494 1220.94 326.326 1220.94 327.693ZM1232.18 323.355C1235.93 323.355 1237.99 325.155 1237.99 327.693C1237.99 330.231 1235.93 332.03 1232.18 332.03C1228.43 332.03 1226.32 330.248 1226.32 327.693C1226.32 325.138 1228.4 323.355 1232.18 323.355ZM1232.18 329.891C1234.15 329.891 1235.2 329.059 1235.2 327.693C1235.2 326.326 1234.15 325.494 1232.18 325.494C1230.21 325.494 1229.11 326.326 1229.11 327.693C1229.11 329.059 1230.16 329.891 1232.18 329.891ZM1246.23 323.533H1240.83V331.859H1246.23C1249.71 331.859 1251.52 330.043 1251.52 327.709C1251.52 325.374 1249.71 323.533 1246.23 323.533ZM1248.73 327.7C1248.73 328.863 1247.95 329.712 1246.2 329.712V329.703H1243.63V325.663H1246.2C1247.95 325.663 1248.73 326.537 1248.73 327.7Z" fill="white"/></g><path d="M1067.15 443.457L1030.23 397.858L1045.33 390.818C1054.7 386.448 1064.1 386.544 1070.81 394.835L1071.02 395.09C1075.1 400.128 1074.76 405.029 1069.95 409.206C1078.94 406.771 1085.6 408.672 1090.61 414.858L1090.82 415.113C1097.59 423.468 1094.6 430.66 1084.48 435.376L1067.15 443.457ZM1050.95 416.486L1062.03 411.319C1070.14 407.538 1071.53 402.674 1066.88 396.934L1066.67 396.679C1061.87 390.748 1055.39 390.081 1047.58 393.722L1036.64 398.82L1050.95 416.486ZM1068.92 438.68L1082.08 432.541C1090.41 428.657 1091.92 423.3 1086.8 416.986L1086.6 416.731C1081.54 410.481 1074.27 409.477 1064.97 413.813L1053.22 419.292L1068.92 438.68ZM1106.78 424.979L1088.97 370.467L1094.47 367.901L1150.51 404.586L1146.35 406.529L1129.16 395.302L1105.21 406.469L1110.72 423.141L1106.78 424.979ZM1093.95 372.187L1104.08 403.044L1125.65 392.987L1093.95 372.187ZM1159.83 400.241L1122.91 354.642L1153.18 340.527L1155.55 343.46L1129.45 355.633L1144.11 373.746L1164.64 364.174L1167.02 367.107L1146.49 376.679L1164 398.299L1159.83 400.241ZM1126.25 496.194L1091.7 453.529L1075.19 461.228L1072.82 458.294L1109.93 440.988L1112.3 443.922L1095.79 451.621L1130.34 494.287L1126.25 496.194ZM1176.32 473.551C1161.15 480.626 1141.97 475.422 1131.64 462.667L1131.23 462.156C1120.75 449.21 1123.47 433.972 1138.42 427.001C1153.44 419.995 1172.51 425.072 1182.89 437.891L1183.3 438.401C1193.74 451.283 1191.19 466.615 1176.32 473.551ZM1173.89 470.554C1186.61 464.623 1188.39 452.02 1178.94 440.349L1178.53 439.839C1169.54 428.742 1153.81 423.865 1140.79 429.935C1127.78 436.004 1126.12 448.636 1135.42 460.116L1135.83 460.626C1145.23 472.233 1161.54 476.311 1173.89 470.554ZM1212.33 456.055L1175.41 410.456L1189.46 403.901C1199.8 399.08 1210.5 399.01 1217.99 408.257L1218.2 408.512C1225.79 417.887 1221 425.129 1210.66 429.95L1200.69 434.597L1216.5 454.112L1212.33 456.055ZM1198.37 431.727L1208.63 426.941C1217.19 422.953 1219.71 417.47 1214.03 410.455L1213.83 410.199C1207.84 402.802 1200.39 402.846 1192.06 406.73L1181.95 411.447L1198.37 431.727ZM1280.34 424.341L1246.41 382.441L1240.1 395.399L1237.42 392.083L1244.01 378.465L1247.51 376.835L1284.43 422.434L1280.34 424.341ZM1323.9 404.73C1308.73 411.805 1289.56 406.601 1279.23 393.846L1278.82 393.336C1268.33 380.39 1271.05 365.151 1286 358.18C1301.03 351.175 1320.1 356.252 1330.48 369.07L1330.89 369.58C1341.32 382.463 1338.78 397.794 1323.9 404.73ZM1321.48 401.733C1334.19 395.802 1335.98 383.199 1326.53 371.528L1326.11 371.018C1317.13 359.921 1301.39 355.045 1288.38 361.114C1275.36 367.183 1273.71 379.816 1283 391.295L1283.42 391.806C1292.82 403.413 1309.13 407.49 1321.48 401.733Z" fill="#1D1D1B" clip-path="url(#clip0_4120_34705)"/><defs><clipPath id="clip0_4120_34705"><rect width="1680" height="768" fill="white"/></clipPath><clipPath id="clip1_4120_34705"><rect width="115.695" height="125.112" fill="white" transform="translate(1173.33 253)"/></clipPath><bx:export><bx:file format="svg"/></bx:export></defs></svg>