<svg width="375" height="270" viewBox="0 0 375 270" fill="none" xmlns="http://www.w3.org/2000/svg">
<g clip-path="url(#clip0_4106_17612)">
<g clip-path="url(#clip1_4106_17612)">
<path d="M247.306 79.8002C247.306 77.6195 246.804 76.1553 245.464 74.5004C243.22 71.7319 239.47 70.1027 235.514 69.8295L235.524 67.1331C235.524 67.1331 235.524 67.1641 235.524 67.1795C235.54 65.6226 235.002 64.045 233.848 62.622C230.569 58.5853 223.593 57.317 218.255 59.7968L176.938 79.0063V106.367L199.854 134.624L240.432 115.096C240.66 115.003 240.882 114.91 241.099 114.812C241.327 114.704 241.549 114.596 241.767 114.477C241.834 114.441 241.901 114.4 241.968 114.364C242.113 114.281 242.263 114.199 242.403 114.116C242.475 114.07 242.553 114.024 242.625 113.977C242.76 113.895 242.889 113.807 243.018 113.719C243.085 113.673 243.153 113.627 243.22 113.58C243.251 113.56 243.287 113.534 243.318 113.513C243.38 113.467 243.432 113.42 243.489 113.379C243.618 113.281 243.742 113.183 243.866 113.085C243.949 113.018 244.032 112.946 244.109 112.874C244.223 112.776 244.337 112.673 244.446 112.57C244.523 112.498 244.596 112.425 244.673 112.348C244.777 112.245 244.88 112.137 244.978 112.028C245.045 111.951 245.118 111.879 245.18 111.802C245.278 111.688 245.371 111.57 245.464 111.456C245.506 111.405 245.552 111.348 245.594 111.296C245.609 111.276 245.62 111.26 245.635 111.24C245.764 111.064 245.888 110.884 246.002 110.703C246.018 110.678 246.038 110.657 246.049 110.631C246.178 110.425 246.297 110.214 246.406 110.002C246.437 109.935 246.468 109.873 246.499 109.806C246.571 109.657 246.638 109.502 246.706 109.353C246.737 109.27 246.768 109.193 246.799 109.11C246.85 108.966 246.902 108.827 246.944 108.682C246.959 108.636 246.98 108.59 246.99 108.543C247.006 108.487 247.016 108.43 247.031 108.378C247.047 108.322 247.062 108.265 247.073 108.208C247.109 108.054 247.145 107.899 247.171 107.749C247.176 107.718 247.181 107.687 247.187 107.662C247.218 107.481 247.238 107.296 247.259 107.11C247.259 107.058 247.264 107.012 247.269 106.961C247.275 106.878 247.285 106.796 247.285 106.713C247.285 106.625 247.29 106.533 247.29 106.445C247.29 106.445 247.3 79.7745 247.3 79.8105L247.306 79.8002Z" fill="#1D1D1B"/>
<path fill-rule="evenodd" clip-rule="evenodd" d="M208.05 88.8734C208.05 87.3298 206.799 86.2354 204.518 86.2354C202.222 86.2354 200.955 87.3195 200.955 88.8734C200.955 90.4274 202.237 91.5115 204.518 91.5115C206.799 91.5115 208.05 90.417 208.05 88.8734ZM206.354 88.8734C206.354 89.7046 205.718 90.2105 204.518 90.2105C203.292 90.2105 202.651 89.7046 202.651 88.8734C202.651 88.0423 203.318 87.5363 204.518 87.5363C205.718 87.5363 206.354 88.0423 206.354 88.8734ZM197.24 86.344H193.33H193.325V91.4085H197.442C198.606 91.4085 199.397 90.7942 199.397 89.9682C199.397 89.4261 199.03 88.9821 198.409 88.7343C198.88 88.5226 199.164 88.1509 199.164 87.676C199.164 86.9274 198.425 86.344 197.24 86.344ZM197.535 87.9031C197.535 88.1922 197.349 88.2955 196.971 88.2955H195.032V87.5366H196.971C197.344 87.5366 197.535 87.6347 197.535 87.9031ZM197.701 89.772C197.701 90.0611 197.483 90.2108 197.075 90.2108H195.027V89.3074H197.075C197.483 89.3074 197.701 89.4622 197.701 89.772ZM213.191 86.2354C215.472 86.2354 216.723 87.3298 216.723 88.8734C216.723 90.417 215.472 91.5115 213.191 91.5115C210.91 91.5115 209.627 90.4274 209.627 88.8734C209.627 87.3195 210.895 86.2354 213.191 86.2354ZM213.191 90.2105C214.391 90.2105 215.027 89.7046 215.027 88.8734C215.027 88.0423 214.391 87.5363 213.191 87.5363C211.991 87.5363 211.324 88.0423 211.324 88.8734C211.324 89.7046 211.965 90.2105 213.191 90.2105ZM220.157 86.344H218.455V91.4085H220.157V89.9527L220.793 89.5035L222.862 91.4034H225.205L222.107 88.5846L225.293 86.344H222.748L220.157 88.1613V86.344ZM228.293 89.6892C228.308 90.0867 228.82 90.4068 229.726 90.4068C230.543 90.4068 231.024 90.2829 231.024 89.937C231.024 89.653 230.698 89.5601 229.576 89.4982C227.626 89.3846 226.607 88.8838 226.607 87.8203C226.607 86.7568 227.833 86.2457 229.596 86.2457C231.36 86.2457 232.601 86.9375 232.601 87.8926H230.879C230.848 87.5983 230.31 87.3712 229.596 87.3712C228.841 87.3712 228.35 87.4848 228.35 87.7739C228.35 87.9752 228.665 88.0681 229.813 88.1352C231.867 88.2488 232.803 88.7702 232.803 89.8492C232.803 91.0366 231.505 91.5219 229.632 91.5219C227.76 91.5219 226.591 90.8146 226.591 89.6943H228.293V89.6892ZM197.706 93.8863H195.71L192.969 98.9456H194.753L195.229 98.0474H198.182L198.658 98.9456H200.447L197.706 93.8863ZM196.708 95.2699L197.53 96.8238H195.886L196.708 95.2699ZM201.973 93.8863H205.883C207.067 93.8863 207.807 94.4697 207.807 95.2183C207.807 95.6932 207.522 96.0649 207.052 96.2714C207.672 96.5192 208.039 96.9632 208.039 97.5104C208.039 98.3365 207.248 98.9508 206.085 98.9508H201.968V93.8915L201.973 93.8863ZM205.614 95.8378C205.991 95.8378 206.178 95.7345 206.178 95.4454C206.178 95.177 205.986 95.0789 205.614 95.0789H203.674V95.8378H205.614ZM205.717 97.7531C206.126 97.7531 206.343 97.6034 206.343 97.3143C206.343 97.0045 206.126 96.8496 205.717 96.8496H203.669V97.7531H205.717ZM216.691 96.4157C216.691 94.8721 215.44 93.7776 213.159 93.7776C210.863 93.7776 209.596 94.8618 209.596 96.4157C209.596 97.9697 210.878 99.0538 213.159 99.0538C215.44 99.0538 216.691 97.9593 216.691 96.4157ZM214.995 96.4209C214.995 97.2521 214.359 97.758 213.159 97.758C211.933 97.758 211.292 97.2521 211.292 96.4209C211.292 95.5897 211.959 95.0838 213.159 95.0838C214.359 95.0838 214.995 95.5897 214.995 96.4209ZM218.384 93.8863H220.085V96.545C220.085 97.2626 220.613 97.7583 221.559 97.7583C222.506 97.7583 223.018 97.2678 223.018 96.545V93.8863H224.719V96.6689C224.719 98.1093 223.483 99.0644 221.565 99.0644C219.646 99.0644 218.384 98.1093 218.384 96.6689V93.8863ZM232.477 93.8863H226.245V95.1873H228.51V98.9456H230.211V95.1873H232.477V93.8863ZM193.332 101.429H198.943V102.73H195.033V103.453H198.478V104.681H195.033V106.488H193.332V101.429ZM207.59 103.959C207.59 102.415 206.338 101.321 204.058 101.321C201.761 101.321 200.494 102.405 200.494 103.959C200.494 105.513 201.777 106.597 204.058 106.597C206.338 106.597 207.59 105.502 207.59 103.959ZM205.894 103.959C205.894 104.79 205.258 105.296 204.058 105.296C202.832 105.296 202.191 104.79 202.191 103.959C202.191 103.128 202.858 102.622 204.058 102.622C205.258 102.622 205.894 103.128 205.894 103.959ZM212.731 101.321C215.011 101.321 216.263 102.415 216.263 103.959C216.263 105.502 215.011 106.597 212.731 106.597C210.45 106.597 209.167 105.513 209.167 103.959C209.167 102.405 210.434 101.321 212.731 101.321ZM212.731 105.296C213.93 105.296 214.567 104.79 214.567 103.959C214.567 103.128 213.93 102.622 212.731 102.622C211.531 102.622 210.864 103.128 210.864 103.959C210.864 104.79 211.505 105.296 212.731 105.296ZM221.279 101.429H217.995V106.493H221.279C223.395 106.493 224.496 105.388 224.496 103.969C224.496 102.549 223.395 101.429 221.279 101.429ZM222.8 103.963C222.8 104.671 222.324 105.187 221.259 105.187V105.182H219.697V102.724H221.259C222.324 102.724 222.8 103.256 222.8 103.963Z" fill="white"/>
</g>
<path d="M112.158 174.12L89.6992 146.386L98.8821 142.104C104.582 139.446 110.3 139.505 114.384 144.547L114.509 144.703C116.991 147.767 116.787 150.747 113.859 153.288C119.328 151.807 123.38 152.963 126.427 156.726L126.552 156.881C130.667 161.962 128.85 166.337 122.698 169.205L112.158 174.12ZM102.301 157.716L109.042 154.573C113.972 152.274 114.817 149.315 111.99 145.824L111.864 145.669C108.943 142.061 105 141.656 100.25 143.871L93.6006 146.971L102.301 157.716ZM113.232 171.215L121.239 167.481C126.306 165.118 127.219 161.86 124.11 158.02L123.984 157.865C120.906 154.064 116.485 153.453 110.831 156.09L103.684 159.423L113.232 171.215ZM136.259 162.881L125.426 129.726L128.774 128.165L162.858 150.478L160.325 151.66L149.872 144.831L135.306 151.623L138.657 161.764L136.259 162.881ZM128.454 130.772L134.617 149.54L147.735 143.423L128.454 130.772ZM168.526 147.835L146.067 120.101L164.478 111.516L165.923 113.3L150.045 120.704L158.966 131.72L171.451 125.898L172.896 127.683L160.411 133.505L171.059 146.654L168.526 147.835ZM148.344 206.494L127.331 180.544L117.288 185.227L115.843 183.443L138.416 172.917L139.861 174.701L129.819 179.384L150.832 205.334L148.344 206.494ZM178.795 192.722C169.567 197.025 157.906 193.86 151.623 186.102L151.372 185.792C144.996 177.917 146.651 168.649 155.743 164.409C164.881 160.148 176.48 163.236 182.793 171.033L183.045 171.343C189.39 179.178 187.842 188.503 178.795 192.722ZM177.319 190.899C185.054 187.292 186.138 179.626 180.39 172.528L180.138 172.217C174.673 165.468 165.105 162.502 157.188 166.194C149.272 169.885 148.265 177.568 153.919 184.55L154.17 184.861C159.887 191.92 169.81 194.4 177.319 190.899ZM200.7 182.08L178.241 154.346L186.79 150.359C193.078 147.427 199.587 147.385 204.142 153.009L204.267 153.164C208.885 158.866 205.97 163.271 199.683 166.203L193.621 169.03L203.233 180.899L200.7 182.08ZM192.208 167.284L198.45 164.373C203.652 161.947 205.189 158.612 201.734 154.345L201.608 154.19C197.965 149.691 193.437 149.718 188.371 152.08L182.219 154.949L192.208 167.284ZM242.065 162.791L221.428 137.307L217.59 145.188L215.956 143.171L219.968 134.889L222.094 133.897L244.553 161.631L242.065 162.791ZM268.56 150.864C259.332 155.167 247.67 152.002 241.388 144.244L241.137 143.934C234.761 136.059 236.416 126.791 245.508 122.551C254.646 118.29 266.245 121.378 272.558 129.175L272.81 129.485C279.155 137.32 277.607 146.645 268.56 150.864ZM267.084 149.041C274.819 145.434 275.903 137.768 270.154 130.67L269.903 130.359C264.438 123.61 254.869 120.644 246.953 124.336C239.037 128.027 238.03 135.71 243.684 142.692L243.935 143.003C249.652 150.062 259.575 152.542 267.084 149.041Z" fill="#1D1D1B"/>
<path d="M512.14 40.8528C512.242 35.4171 510.667 30.0703 506.641 25.0792C499.91 16.7479 488.658 11.8329 476.77 11.0201L476.796 2.90469C476.796 2.90469 476.796 2.99359 476.796 3.04439C476.847 -1.64197 475.234 -6.39183 471.766 -10.6718C461.937 -22.8258 441.007 -26.6486 424.992 -19.1809L301 38.643L369.784 123.709L491.553 66.9262C492.226 66.6468 492.9 66.3674 493.547 66.0626C494.233 65.7451 494.906 65.4022 495.554 65.0593C495.757 64.945 495.96 64.8307 496.164 64.7164C496.608 64.4751 497.04 64.2211 497.472 63.9671C497.7 63.8274 497.916 63.6877 498.132 63.5607C498.538 63.3067 498.919 63.0527 499.313 62.786C499.516 62.6463 499.72 62.5066 499.923 62.3669C500.024 62.3034 500.126 62.2272 500.215 62.1637C500.393 62.0367 500.558 61.8843 500.736 61.7572C501.117 61.4651 501.498 61.173 501.866 60.8682C502.12 60.665 502.361 60.4491 502.603 60.2332C502.945 59.9284 503.288 59.6236 503.606 59.3188C503.834 59.1029 504.063 58.8743 504.279 58.6584C504.596 58.3409 504.901 58.0234 505.193 57.6932C505.397 57.4646 505.6 57.2487 505.803 57.0074C506.095 56.6645 506.374 56.3089 506.654 55.966C506.781 55.8009 506.921 55.6485 507.048 55.4834C507.086 55.4326 507.124 55.3691 507.162 55.3183C507.556 54.7849 507.924 54.2515 508.267 53.6926C508.318 53.6164 508.368 53.5529 508.419 53.4767C508.8 52.8544 509.156 52.2194 509.486 51.5844C509.588 51.3939 509.676 51.1907 509.765 51.0002C509.981 50.543 510.197 50.0858 510.375 49.6286C510.477 49.3873 510.566 49.146 510.654 48.9047C510.82 48.4729 510.959 48.0411 511.099 47.6093C511.137 47.4696 511.201 47.3299 511.239 47.1902C511.289 47.0251 511.328 46.86 511.366 46.6822C511.416 46.5171 511.455 46.3393 511.493 46.1742C511.607 45.7169 511.696 45.247 511.785 44.7898C511.797 44.7009 511.823 44.612 511.836 44.5231C511.924 43.977 512.001 43.4182 512.051 42.8721C512.064 42.7197 512.077 42.5673 512.09 42.4149C512.102 42.1736 512.128 41.9196 512.14 41.6783C512.14 41.4116 512.153 41.1449 512.153 40.8655L512.14 40.8528Z" fill="#1D1D1B" fill-opacity="0.05"/>
<path d="M91.1403 17.8528C91.2419 12.4171 89.6671 7.07034 85.6412 2.07918C78.9101 -6.25213 67.6577 -11.1671 55.7704 -11.9799L55.7958 -20.0953C55.7958 -20.0953 55.7958 -20.0064 55.7958 -19.9556C55.8466 -24.642 54.2336 -29.3918 50.7665 -33.6718C40.9366 -45.8258 20.0067 -49.6486 3.99175 -42.1809L-120 15.643L-51.2159 100.709L70.5533 43.9262C71.2265 43.6468 71.8996 43.3674 72.5473 43.0626C73.2331 42.7451 73.9062 42.4022 74.5539 42.0593C74.7571 41.945 74.9603 41.8307 75.1635 41.7164C75.608 41.4751 76.0398 41.2211 76.4716 40.9671C76.7002 40.8274 76.9161 40.6877 77.132 40.5607C77.5384 40.3067 77.9195 40.0527 78.3132 39.786C78.5164 39.6463 78.7196 39.5066 78.9228 39.3669C79.0244 39.3034 79.126 39.2272 79.2149 39.1637C79.3927 39.0367 79.5578 38.8843 79.7356 38.7572C80.1166 38.4651 80.4976 38.173 80.8659 37.8682C81.1199 37.665 81.3612 37.4491 81.6025 37.2332C81.9454 36.9284 82.2883 36.6236 82.6058 36.3188C82.8344 36.1029 83.063 35.8743 83.2789 35.6584C83.5964 35.3409 83.9012 35.0234 84.1933 34.6932C84.3965 34.4646 84.5997 34.2487 84.8029 34.0074C85.095 33.6645 85.3745 33.3089 85.6539 32.966C85.7809 32.8009 85.9206 32.6485 86.0476 32.4834C86.0857 32.4326 86.1238 32.3691 86.1619 32.3183C86.5556 31.7849 86.9239 31.2515 87.2668 30.6926C87.3176 30.6164 87.3684 30.5529 87.4192 30.4767C87.8002 29.8544 88.1558 29.2194 88.486 28.5844C88.5876 28.3939 88.6765 28.1907 88.7654 28.0002C88.9813 27.543 89.1972 27.0858 89.375 26.6286C89.4766 26.3873 89.5655 26.146 89.6544 25.9047C89.8195 25.4729 89.9592 25.0411 90.0989 24.6093C90.137 24.4696 90.2005 24.3299 90.2386 24.1902C90.2894 24.0251 90.3275 23.86 90.3656 23.6822C90.4164 23.5171 90.4545 23.3393 90.4926 23.1742C90.6069 22.7169 90.6958 22.247 90.7847 21.7898C90.7974 21.7009 90.8228 21.612 90.8355 21.5231C90.9244 20.977 91.0006 20.4182 91.0514 19.8721C91.0641 19.7197 91.0768 19.5673 91.0895 19.4149C91.1022 19.1736 91.1276 18.9196 91.1403 18.6783C91.1403 18.4116 91.153 18.1449 91.153 17.8655L91.1403 17.8528Z" fill="#1D1D1B" fill-opacity="0.05"/>
</g>
<defs>
<clipPath id="clip0_4106_17612">
<rect width="375" height="270" fill="white"/>
</clipPath>
<clipPath id="clip1_4106_17612">
<rect width="70.3681" height="76.0957" fill="white" transform="translate(176.938 58.5283)"/>
</clipPath>
</defs>
</svg>
