<svg width="308" height="244" viewBox="0 0 308 244" fill="none" xmlns="http://www.w3.org/2000/svg">
<g clip-path="url(#clip0_4120_35257)">
<path d="M259.027 34.974C259.027 31.3885 258.202 28.9812 256 26.2603C252.31 21.7085 246.145 19.0299 239.64 18.5807L239.657 14.1475C239.657 14.1475 239.657 14.1984 239.657 14.2238C239.682 11.6639 238.798 9.07016 236.902 6.73067C231.511 0.0936476 220.04 -1.99155 211.264 2.0856L143.332 33.6687V78.6529L181.01 125.112L247.726 93.0052C248.1 92.8526 248.466 92.7001 248.823 92.539C249.197 92.361 249.563 92.183 249.92 91.988C250.031 91.9287 250.141 91.8609 250.252 91.8015C250.49 91.6659 250.736 91.5303 250.966 91.3947C251.085 91.3184 251.213 91.2421 251.332 91.1658C251.553 91.0302 251.765 90.8861 251.978 90.742C252.088 90.6657 252.199 90.5894 252.31 90.5131C252.361 90.4792 252.42 90.4369 252.471 90.4029C252.573 90.3267 252.658 90.2504 252.752 90.1826C252.964 90.0215 253.168 89.8605 253.372 89.6994C253.508 89.5892 253.645 89.4705 253.772 89.3519C253.959 89.1908 254.146 89.0213 254.325 88.8518C254.452 88.7331 254.571 88.6144 254.699 88.4873C254.869 88.3177 255.039 88.1397 255.201 87.9617C255.311 87.8346 255.43 87.7159 255.532 87.5888C255.694 87.4023 255.847 87.2073 256 87.0209C256.068 86.9361 256.145 86.8429 256.213 86.7581C256.238 86.7242 256.255 86.6987 256.281 86.6648C256.493 86.3766 256.697 86.08 256.884 85.7833C256.91 85.7409 256.944 85.707 256.961 85.6646C257.173 85.3256 257.369 84.978 257.548 84.6305C257.599 84.5203 257.65 84.4186 257.701 84.3084C257.82 84.0626 257.93 83.8083 258.041 83.5625C258.092 83.4269 258.143 83.2997 258.194 83.1641C258.279 82.9268 258.364 82.6979 258.432 82.4606C258.457 82.3843 258.491 82.308 258.508 82.2317C258.534 82.1385 258.551 82.0452 258.576 81.9604C258.602 81.8672 258.627 81.774 258.644 81.6807C258.704 81.4264 258.764 81.1721 258.806 80.9263C258.815 80.8755 258.823 80.8246 258.832 80.7822C258.883 80.4855 258.917 80.1804 258.951 79.8752C258.951 79.7905 258.959 79.7142 258.968 79.6294C258.976 79.4938 258.993 79.3582 258.993 79.2226C258.993 79.0785 259.002 78.9259 259.002 78.7818C259.002 78.7818 259.019 34.9317 259.019 34.991L259.027 34.974Z" fill="#1D1D1B"/>
<path fill-rule="evenodd" clip-rule="evenodd" d="M194.484 49.8901C194.484 47.3522 192.426 45.5527 188.676 45.5527C184.901 45.5527 182.817 47.3352 182.817 49.8901C182.817 52.445 184.926 54.2275 188.676 54.2275C192.426 54.2275 194.484 52.428 194.484 49.8901ZM191.695 49.8901C191.695 51.2567 190.649 52.0885 188.676 52.0885C186.661 52.0885 185.606 51.2567 185.606 49.8901C185.606 48.5235 186.703 47.6917 188.676 47.6917C190.649 47.6917 191.695 48.5235 191.695 49.8901ZM176.71 45.7314H170.282H170.273V54.0582H177.042C178.955 54.0582 180.256 53.0481 180.256 51.69C180.256 50.7988 179.653 50.0688 178.632 49.6614C179.406 49.3134 179.874 48.7022 179.874 47.9213C179.874 46.6906 178.658 45.7314 176.71 45.7314ZM177.195 48.2948C177.195 48.7701 176.889 48.9399 176.268 48.9399H173.08V47.6921H176.268C176.88 47.6921 177.195 47.8534 177.195 48.2948ZM177.467 51.3675C177.467 51.8428 177.11 52.0889 176.438 52.0889H173.071V50.6035H176.438C177.11 50.6035 177.467 50.8582 177.467 51.3675ZM202.936 45.5527C206.685 45.5527 208.743 47.3522 208.743 49.8901C208.743 52.428 206.685 54.2275 202.936 54.2275C199.186 54.2275 197.077 52.445 197.077 49.8901C197.077 47.3352 199.16 45.5527 202.936 45.5527ZM202.936 52.0885C204.908 52.0885 205.954 51.2567 205.954 49.8901C205.954 48.5235 204.908 47.6917 202.936 47.6917C200.963 47.6917 199.866 48.5235 199.866 49.8901C199.866 51.2567 200.92 52.0885 202.936 52.0885ZM214.389 45.7314H211.591V54.0582H214.389V51.6645L215.435 50.9261L218.836 54.0497H222.688L217.595 49.4152L222.833 45.7314H218.649L214.389 48.7192V45.7314ZM227.766 51.2313C227.791 51.8849 228.633 52.4112 230.121 52.4112C231.464 52.4112 232.255 52.2075 232.255 51.6388C232.255 51.1719 231.72 51.0191 229.874 50.9173C226.669 50.7305 224.993 49.9072 224.993 48.1587C224.993 46.4101 227.009 45.5698 229.908 45.5698C232.808 45.5698 234.849 46.7072 234.849 48.2775H232.017C231.966 47.7937 231.082 47.4202 229.908 47.4202C228.667 47.4202 227.859 47.6069 227.859 48.0823C227.859 48.4133 228.378 48.5661 230.265 48.6764C233.641 48.8632 235.18 49.7205 235.18 51.4945C235.18 53.4467 233.046 54.2446 229.968 54.2446C226.89 54.2446 224.968 53.0817 224.968 51.2398H227.766V51.2313ZM177.476 58.132H174.194L169.688 66.4503H172.621L173.403 64.9733H178.259L179.041 66.4503H181.983L177.476 58.132ZM175.835 60.4068L177.187 62.9617H174.483L175.835 60.4068ZM184.492 58.132H190.92C192.867 58.132 194.083 59.0911 194.083 60.3219C194.083 61.1028 193.616 61.7139 192.842 62.0535C193.862 62.4609 194.466 63.1909 194.466 64.0906C194.466 65.4487 193.165 66.4587 191.252 66.4587H184.483V58.1405L184.492 58.132ZM190.478 61.3405C191.099 61.3405 191.405 61.1707 191.405 60.6954C191.405 60.254 191.09 60.0927 190.478 60.0927H187.289V61.3405H190.478ZM190.648 64.4895C191.32 64.4895 191.677 64.2434 191.677 63.768C191.677 63.2588 191.32 63.0041 190.648 63.0041H187.281V64.4895H190.648ZM208.691 62.2907C208.691 59.7528 206.633 57.9533 202.883 57.9533C199.108 57.9533 197.024 59.7358 197.024 62.2907C197.024 64.8456 199.133 66.6281 202.883 66.6281C206.633 66.6281 208.691 64.8286 208.691 62.2907ZM205.902 62.2992C205.902 63.6658 204.856 64.4976 202.883 64.4976C200.868 64.4976 199.813 63.6658 199.813 62.2992C199.813 60.9326 200.91 60.1008 202.883 60.1008C204.856 60.1008 205.902 60.9326 205.902 62.2992ZM211.474 58.132H214.271V62.5033C214.271 63.6832 215.139 64.498 216.695 64.498C218.251 64.498 219.093 63.6917 219.093 62.5033V58.132H221.89V62.707C221.89 65.0752 219.858 66.6455 216.703 66.6455C213.548 66.6455 211.474 65.0752 211.474 62.707V58.132ZM234.644 58.132H224.398V60.271H228.122V66.4503H230.92V60.271H234.644V58.132ZM170.284 70.5332H179.51V72.6722H173.082V73.8605H178.745V75.8806H173.082V78.8515H170.284V70.5332ZM193.727 74.6926C193.727 72.1547 191.669 70.3552 187.919 70.3552C184.144 70.3552 182.061 72.1377 182.061 74.6926C182.061 77.2475 184.169 79.03 187.919 79.03C191.669 79.03 193.727 77.2305 193.727 74.6926ZM190.938 74.6926C190.938 76.0592 189.892 76.891 187.919 76.891C185.904 76.891 184.85 76.0592 184.85 74.6926C184.85 73.326 185.946 72.4942 187.919 72.4942C189.892 72.4942 190.938 73.326 190.938 74.6926ZM202.179 70.3552C205.929 70.3552 207.987 72.1547 207.987 74.6926C207.987 77.2305 205.929 79.03 202.179 79.03C198.429 79.03 196.32 77.2475 196.32 74.6926C196.32 72.1377 198.403 70.3552 202.179 70.3552ZM202.179 76.891C204.152 76.891 205.197 76.0592 205.197 74.6926C205.197 73.326 204.152 72.4942 202.179 72.4942C200.206 72.4942 199.109 73.326 199.109 74.6926C199.109 76.0592 200.164 76.891 202.179 76.891ZM216.234 70.5326H210.834V78.8593H216.234C219.712 78.8593 221.523 77.0429 221.523 74.7087C221.523 72.3745 219.712 70.5326 216.234 70.5326ZM218.734 74.7002C218.734 75.8631 217.952 76.7119 216.2 76.7119V76.7034H213.632V72.6631H216.2C217.952 72.6631 218.734 73.5373 218.734 74.7002Z" fill="white"/>
</g>
<path d="M37.1519 190.457L0.226562 144.858L15.3245 137.817C24.6957 133.448 34.0975 133.544 40.8112 141.835L41.0178 142.09C45.0977 147.128 44.7627 152.029 39.9489 156.206C48.9398 153.771 55.6023 155.672 60.6117 161.858L60.8183 162.113C67.5836 170.468 64.5959 177.659 54.481 182.376L37.1519 190.457ZM20.9464 163.486L32.0282 158.318C40.135 154.538 41.5235 149.673 36.8756 143.934L36.669 143.678C31.8661 137.747 25.3834 137.08 17.5741 140.722L6.64111 145.82L20.9464 163.486ZM38.9185 185.679L52.0827 179.541C60.4126 175.656 61.9148 170.3 56.8021 163.986L56.5955 163.731C51.5344 157.481 44.2666 156.477 34.9699 160.812L23.2188 166.292L38.9185 185.679Z" fill="#1D1D1B"/>
<path d="M76.7782 171.979L58.967 117.467L64.4707 114.9L120.51 151.586L116.345 153.528L99.1597 142.301L75.2112 153.469L80.72 170.14L76.7782 171.979ZM63.9457 119.186L74.0772 150.044L95.6457 139.986L63.9457 119.186Z" fill="#1D1D1B"/>
<path d="M129.829 147.241L92.9037 101.642L123.174 87.5264L125.55 90.46L99.4443 102.633L114.111 120.745L134.638 111.173L137.014 114.107L116.487 123.679L133.994 145.298L129.829 147.241Z" fill="#1D1D1B"/>
<path d="M96.2508 243.194L61.7011 200.528L45.19 208.228L42.8144 205.294L79.9271 187.988L82.3027 190.922L65.7916 198.621L100.341 241.286L96.2508 243.194Z" fill="#1D1D1B"/>
<path d="M146.316 220.551C131.144 227.626 111.971 222.421 101.642 209.666L101.229 209.156C90.745 196.21 93.4666 180.971 108.416 174.001C123.439 166.995 142.509 172.072 152.89 184.89L153.303 185.401C163.735 198.283 161.191 213.614 146.316 220.551ZM143.889 217.553C156.607 211.623 158.388 199.019 148.938 187.348L148.524 186.838C139.538 175.741 123.807 170.865 110.791 176.934C97.776 183.003 96.1205 195.636 105.416 207.115L105.83 207.626C115.229 219.233 131.543 223.31 143.889 217.553Z" fill="#1D1D1B"/>
<path d="M182.33 203.054L145.405 157.455L159.462 150.9C169.8 146.08 180.501 146.01 187.989 155.257L188.196 155.512C195.787 164.887 190.996 172.129 180.658 176.95L170.692 181.597L186.495 201.112L182.33 203.054ZM168.368 178.727L178.632 173.941C187.185 169.953 189.712 164.469 184.031 157.454L183.824 157.199C177.834 149.801 170.39 149.846 162.06 153.73L151.945 158.447L168.368 178.727Z" fill="#1D1D1B"/>
<path d="M250.34 171.341L216.41 129.441L210.1 142.399L207.415 139.082L214.01 125.464L217.505 123.834L254.431 169.433L250.34 171.341Z" fill="#1D1D1B"/>
<path d="M293.902 151.73C278.73 158.805 259.557 153.601 249.228 140.846L248.815 140.336C238.331 127.389 241.053 112.151 256.002 105.18C271.026 98.1744 290.096 103.251 300.476 116.07L300.889 116.58C311.321 129.463 308.777 144.794 293.902 151.73ZM291.475 148.733C304.193 142.802 305.975 130.199 296.524 118.528L296.111 118.018C287.125 106.921 271.393 102.044 258.378 108.114C245.362 114.183 243.707 126.815 253.003 138.295L253.416 138.805C262.815 150.412 279.129 154.49 291.475 148.733Z" fill="#1D1D1B"/>
<defs>
<clipPath id="clip0_4120_35257">
<rect width="115.695" height="125.112" fill="white" transform="translate(143.332)"/>
</clipPath>
</defs>
</svg>
