<svg width="284" height="224" viewBox="0 0 284 224" fill="none" xmlns="http://www.w3.org/2000/svg">
<g clip-path="url(#clip0_4238_18148)">
<path d="M238.511 32.1469C238.511 28.8512 237.753 26.6385 235.728 24.1375C232.336 19.9536 226.67 17.4916 220.691 17.0787L220.706 13.0039C220.706 13.0039 220.706 13.0506 220.706 13.074C220.73 10.7211 219.917 8.33696 218.174 6.18659C213.219 0.0860775 202.675 -1.83056 194.609 1.91701L132.168 30.947V72.295L166.8 114.999L228.123 85.487C228.467 85.3468 228.803 85.2066 229.132 85.0585C229.476 84.8949 229.812 84.7313 230.14 84.5521C230.242 84.4975 230.343 84.4352 230.445 84.3807C230.664 84.256 230.89 84.1314 231.101 84.0067C231.211 83.9366 231.328 83.8665 231.437 83.7963C231.641 83.6717 231.836 83.5392 232.031 83.4068C232.133 83.3367 232.235 83.2665 232.336 83.1964C232.383 83.1653 232.438 83.1263 232.485 83.0951C232.578 83.025 232.657 82.9549 232.743 82.8926C232.938 82.7445 233.126 82.5965 233.313 82.4485C233.438 82.3472 233.563 82.2381 233.681 82.129C233.852 81.981 234.024 81.8252 234.189 81.6693C234.306 81.5603 234.415 81.4512 234.532 81.3343C234.689 81.1785 234.845 81.0149 234.994 80.8513C235.095 80.7344 235.205 80.6253 235.298 80.5085C235.447 80.3371 235.588 80.1578 235.728 79.9864C235.791 79.9085 235.861 79.8228 235.924 79.7449C235.947 79.7138 235.963 79.6904 235.986 79.6592C236.182 79.3943 236.369 79.1216 236.541 78.8489C236.565 78.81 236.596 78.7788 236.611 78.7399C236.807 78.4282 236.987 78.1088 237.151 77.7893C237.198 77.688 237.245 77.5945 237.291 77.4933C237.401 77.2673 237.502 77.0336 237.604 76.8076C237.651 76.683 237.698 76.5661 237.745 76.4415C237.823 76.2233 237.901 76.0129 237.964 75.7948C237.987 75.7247 238.018 75.6545 238.034 75.5844C238.057 75.4987 238.073 75.413 238.096 75.3351C238.12 75.2494 238.143 75.1637 238.159 75.078C238.214 74.8443 238.268 74.6105 238.308 74.3846C238.315 74.3378 238.323 74.2911 238.331 74.2521C238.378 73.9794 238.409 73.6989 238.44 73.4185C238.44 73.3405 238.448 73.2704 238.456 73.1925C238.464 73.0679 238.479 72.9432 238.479 72.8185C238.479 72.6861 238.487 72.5459 238.487 72.4134C238.487 72.4134 238.503 32.1079 238.503 32.1625L238.511 32.1469Z" fill="#1D1D1B"/>
<path fill-rule="evenodd" clip-rule="evenodd" d="M179.18 45.8579C179.18 43.5251 177.289 41.8711 173.842 41.8711C170.371 41.8711 168.457 43.5095 168.457 45.8579C168.457 48.2062 170.395 49.8446 173.842 49.8446C177.289 49.8446 179.18 48.1906 179.18 45.8579ZM176.616 45.8579C176.616 47.114 175.655 47.8786 173.842 47.8786C171.989 47.8786 171.02 47.114 171.02 45.8579C171.02 44.6018 172.028 43.8372 173.842 43.8372C175.655 43.8372 176.616 44.6018 176.616 45.8579ZM162.848 42.0353H156.939H156.932V49.689H163.153C164.912 49.689 166.107 48.7606 166.107 47.5122C166.107 46.6931 165.553 46.0221 164.615 45.6476C165.326 45.3277 165.756 44.766 165.756 44.0482C165.756 42.9169 164.638 42.0353 162.848 42.0353ZM163.294 44.3915C163.294 44.8284 163.012 44.9844 162.442 44.9844H159.511V43.8376H162.442C163.005 43.8376 163.294 43.9858 163.294 44.3915ZM163.544 47.2158C163.544 47.6527 163.216 47.8789 162.598 47.8789H159.503V46.5136H162.598C163.216 46.5136 163.544 46.7477 163.544 47.2158ZM186.951 41.8711C190.398 41.8711 192.289 43.5251 192.289 45.8579C192.289 48.1906 190.398 49.8446 186.951 49.8446C183.504 49.8446 181.566 48.2062 181.566 45.8579C181.566 43.5095 183.481 41.8711 186.951 41.8711ZM186.951 47.8786C188.764 47.8786 189.726 47.114 189.726 45.8579C189.726 44.6018 188.764 43.8372 186.951 43.8372C185.138 43.8372 184.129 44.6018 184.129 45.8579C184.129 47.114 185.099 47.8786 186.951 47.8786ZM197.478 42.0353H194.907V49.689H197.478V47.4888L198.44 46.8101L201.566 49.6812H205.107L200.425 45.4213L205.24 42.0353H201.394L197.478 44.7816V42.0353ZM209.771 47.0894C209.795 47.6902 210.569 48.1739 211.936 48.1739C213.171 48.1739 213.898 47.9867 213.898 47.4639C213.898 47.0348 213.406 46.8944 211.71 46.8008C208.763 46.6291 207.223 45.8723 207.223 44.2652C207.223 42.658 209.076 41.8856 211.741 41.8856C214.406 41.8856 216.282 42.931 216.282 44.3744H213.679C213.632 43.9297 212.82 43.5864 211.741 43.5864C210.6 43.5864 209.857 43.758 209.857 44.1949C209.857 44.4992 210.334 44.6397 212.069 44.7411C215.172 44.9127 216.587 45.7007 216.587 47.3313C216.587 49.1257 214.625 49.8591 211.796 49.8591C208.966 49.8591 207.2 48.7903 207.2 47.0972H209.771V47.0894ZM163.55 53.4323H160.533L156.391 61.0781H159.087L159.806 59.7206H164.269L164.988 61.0781H167.692L163.55 53.4323ZM162.041 55.5232L163.284 57.8716H160.799L162.041 55.5232ZM170 53.4323H175.909C177.699 53.4323 178.817 54.3139 178.817 55.4452C178.817 56.1629 178.387 56.7247 177.676 57.0368C178.614 57.4113 179.168 58.0822 179.168 58.9092C179.168 60.1575 177.973 61.0859 176.214 61.0859H169.993V53.4401L170 53.4323ZM175.503 56.3814C176.073 56.3814 176.355 56.2254 176.355 55.7885C176.355 55.3828 176.066 55.2345 175.503 55.2345H172.572V56.3814H175.503ZM175.659 59.2759C176.277 59.2759 176.605 59.0497 176.605 58.6127C176.605 58.1446 176.277 57.9106 175.659 57.9106H172.564V59.2759H175.659ZM192.241 57.2572C192.241 54.9245 190.35 53.2705 186.903 53.2705C183.432 53.2705 181.518 54.9089 181.518 57.2572C181.518 59.6056 183.456 61.244 186.903 61.244C190.35 61.244 192.241 59.59 192.241 57.2572ZM189.677 57.265C189.677 58.5211 188.716 59.2857 186.903 59.2857C185.05 59.2857 184.081 58.5211 184.081 57.265C184.081 56.0089 185.089 55.2444 186.903 55.2444C188.716 55.2444 189.677 56.0089 189.677 57.265ZM194.799 53.4323H197.37V57.4503C197.37 58.5347 198.168 59.2837 199.598 59.2837C201.028 59.2837 201.802 58.5425 201.802 57.4503V53.4323H204.373V57.6375C204.373 59.8142 202.505 61.2576 199.606 61.2576C196.706 61.2576 194.799 59.8142 194.799 57.6375V53.4323ZM216.096 53.4323H206.678V55.3984H210.102V61.0781H212.673V55.3984H216.096V53.4323ZM156.936 64.8322H165.417V66.7983H159.508V67.8906H164.713V69.7474H159.508V72.4781H156.936V64.8322ZM178.484 68.6542C178.484 66.3215 176.593 64.6674 173.146 64.6674C169.676 64.6674 167.761 66.3058 167.761 68.6542C167.761 71.0026 169.699 72.641 173.146 72.641C176.593 72.641 178.484 70.987 178.484 68.6542ZM175.921 68.6542C175.921 69.9103 174.959 70.6749 173.146 70.6749C171.294 70.6749 170.325 69.9103 170.325 68.6542C170.325 67.3981 171.333 66.6335 173.146 66.6335C174.959 66.6335 175.921 67.3981 175.921 68.6542ZM186.255 64.6674C189.702 64.6674 191.594 66.3215 191.594 68.6542C191.594 70.987 189.702 72.641 186.255 72.641C182.809 72.641 180.87 71.0026 180.87 68.6542C180.87 66.3058 182.785 64.6674 186.255 64.6674ZM186.255 70.6749C188.069 70.6749 189.03 69.9103 189.03 68.6542C189.03 67.3981 188.069 66.6335 186.255 66.6335C184.442 66.6335 183.434 67.3981 183.434 68.6542C183.434 69.9103 184.403 70.6749 186.255 70.6749ZM199.175 64.8317H194.211V72.4853H199.175C202.371 72.4853 204.036 70.8157 204.036 68.6702C204.036 66.5247 202.371 64.8317 199.175 64.8317ZM201.472 68.6624C201.472 69.7313 200.753 70.5115 199.143 70.5115V70.5037H196.783V66.7899H199.143C200.753 66.7899 201.472 67.5935 201.472 68.6624Z" fill="white"/>
</g>
<path d="M34.7568 175.289L0.816406 133.377L14.6939 126.905C23.3075 122.889 31.9494 122.978 38.1204 130.598L38.3102 130.833C42.0603 135.463 41.7524 139.968 37.3278 143.808C45.5919 141.569 51.7158 143.317 56.3203 149.003L56.5101 149.237C62.7286 156.916 59.9824 163.527 50.6852 167.862L34.7568 175.289ZM19.8614 150.499L30.0473 145.749C37.4988 142.274 38.7751 137.803 34.5029 132.527L34.313 132.293C29.8984 126.841 23.9397 126.228 16.7616 129.575L6.71243 134.261L19.8614 150.499ZM36.3806 170.898L48.4807 165.256C56.1372 161.686 57.518 156.762 52.8186 150.958L52.6287 150.724C47.9767 144.979 41.2965 144.057 32.7512 148.041L21.95 153.078L36.3806 170.898Z" fill="#1D1D1B"/>
<path d="M71.1799 158.305L54.8085 108.2L59.8673 105.841L111.377 139.561L107.549 141.346L91.7522 131.027L69.7396 141.291L74.8031 156.616L71.1799 158.305ZM59.3848 109.78L68.6973 138.144L88.5223 128.899L59.3848 109.78Z" fill="#1D1D1B"/>
<path d="M119.942 135.567L86.0019 93.6539L113.825 80.6797L116.009 83.3762L92.0138 94.5653L105.495 111.213L124.363 102.415L126.546 105.111L107.679 113.91L123.771 133.782L119.942 135.567Z" fill="#1D1D1B"/>
<path d="M89.2698 224L57.513 184.783L42.3366 191.86L40.1531 189.164L74.2657 173.257L76.4493 175.953L61.2729 183.03L93.0298 222.247L89.2698 224Z" fill="#1D1D1B"/>
<path d="M135.288 203.187C121.342 209.69 103.719 204.907 94.2251 193.183L93.8454 192.714C84.2092 180.814 86.7108 166.808 100.452 160.4C114.261 153.961 131.789 158.627 141.33 170.41L141.71 170.879C151.299 182.72 148.961 196.812 135.288 203.187ZM133.057 200.432C144.747 194.981 146.385 183.396 137.698 172.669L137.318 172.2C129.058 162 114.598 157.518 102.635 163.097C90.6718 168.675 89.1501 180.287 97.6945 190.838L98.0743 191.307C106.714 201.976 121.709 205.724 133.057 200.432Z" fill="#1D1D1B"/>
<path d="M168.391 187.105L134.45 145.192L147.371 139.167C156.873 134.736 166.71 134.672 173.593 143.172L173.782 143.406C180.76 152.023 176.356 158.68 166.854 163.111L157.694 167.382L172.219 185.32L168.391 187.105ZM155.558 164.744L164.991 160.345C172.853 156.679 175.176 151.639 169.954 145.191L169.764 144.957C164.258 138.157 157.416 138.198 149.76 141.768L140.462 146.104L155.558 164.744Z" fill="#1D1D1B"/>
<path d="M230.903 157.955L199.716 119.442L193.916 131.353L191.448 128.305L197.51 115.787L200.723 114.289L234.663 156.202L230.903 157.955Z" fill="#1D1D1B"/>
<path d="M270.944 139.93C256.998 146.433 239.375 141.649 229.881 129.925L229.501 129.456C219.865 117.557 222.367 103.55 236.107 97.1427C249.917 90.7034 267.445 95.3697 276.986 107.152L277.366 107.621C286.955 119.462 284.617 133.554 270.944 139.93ZM268.713 137.175C280.403 131.724 282.04 120.139 273.354 109.411L272.974 108.943C264.714 98.7427 250.254 94.2606 238.291 99.8392C226.328 105.418 224.806 117.029 233.35 127.581L233.73 128.05C242.37 138.718 257.365 142.466 268.713 137.175Z" fill="#1D1D1B"/>
<defs>
<clipPath id="clip0_4238_18148">
<rect width="106.343" height="114.999" fill="white" transform="translate(132.168)"/>
</clipPath>
</defs>
</svg>
