<svg width="1680" height="472" viewBox="0 0 1680 472" fill="none" xmlns="http://www.w3.org/2000/svg">
<g clip-path="url(#clip0_4261_17591)">
<path d="M1669.96 341.072C1670.28 324.211 1665.39 307.625 1652.9 292.142C1632.02 266.299 1597.12 251.052 1560.24 248.531L1560.32 223.357C1560.32 223.357 1560.32 223.633 1560.32 223.79C1560.48 209.253 1555.48 194.519 1544.72 181.242C1514.23 143.54 1449.3 131.682 1399.62 154.847L1015 334.217L1228.37 598.093L1606.1 421.953C1608.19 421.086 1610.28 420.219 1612.28 419.274C1614.41 418.289 1616.5 417.225 1618.51 416.161C1619.14 415.807 1619.77 415.452 1620.4 415.098C1621.78 414.349 1623.12 413.561 1624.46 412.773C1625.17 412.34 1625.84 411.907 1626.51 411.513C1627.77 410.725 1628.95 409.937 1630.17 409.109C1630.8 408.676 1631.43 408.243 1632.06 407.809C1632.38 407.612 1632.69 407.376 1632.97 407.179C1633.52 406.785 1634.03 406.312 1634.58 405.918C1635.76 405.012 1636.95 404.106 1638.09 403.161C1638.88 402.53 1639.63 401.861 1640.37 401.191C1641.44 400.245 1642.5 399.3 1643.49 398.354C1644.2 397.685 1644.9 396.975 1645.57 396.306C1646.56 395.321 1647.5 394.336 1648.41 393.312C1649.04 392.602 1649.67 391.933 1650.3 391.184C1651.21 390.12 1652.07 389.017 1652.94 387.954C1653.34 387.442 1653.77 386.969 1654.16 386.457C1654.28 386.299 1654.4 386.102 1654.52 385.945C1655.74 384.29 1656.88 382.635 1657.94 380.902C1658.1 380.665 1658.26 380.468 1658.42 380.232C1659.6 378.302 1660.7 376.332 1661.73 374.362C1662.04 373.771 1662.32 373.141 1662.59 372.55C1663.26 371.132 1663.93 369.713 1664.48 368.295C1664.8 367.547 1665.08 366.798 1665.35 366.049C1665.86 364.71 1666.3 363.371 1666.73 362.031C1666.85 361.598 1667.05 361.164 1667.16 360.731C1667.32 360.219 1667.44 359.707 1667.56 359.155C1667.72 358.643 1667.83 358.091 1667.95 357.579C1668.31 356.161 1668.58 354.703 1668.86 353.285C1668.9 353.009 1668.98 352.734 1669.02 352.458C1669.29 350.764 1669.53 349.03 1669.68 347.336C1669.72 346.864 1669.76 346.391 1669.8 345.918C1669.84 345.17 1669.92 344.382 1669.96 343.633C1669.96 342.806 1670 341.978 1670 341.112L1669.96 341.072Z" fill="white"/>
<path d="M640.961 14.0723C641.276 -2.7892 636.391 -19.375 623.902 -34.8576C603.022 -60.7015 568.117 -75.9478 531.242 -78.4691L531.321 -103.643C531.321 -103.643 531.321 -103.367 531.321 -103.21C531.479 -117.747 526.476 -132.481 515.72 -145.758C485.228 -183.46 420.303 -195.318 370.624 -172.153L-14 7.21742L199.369 271.093L577.099 94.9525C579.188 94.0858 581.276 93.2191 583.285 92.2736C585.412 91.2887 587.5 90.225 589.509 89.1613C590.14 88.8067 590.77 88.4522 591.4 88.0976C592.779 87.3491 594.119 86.5612 595.458 85.7733C596.167 85.3399 596.837 84.9066 597.507 84.5126C598.767 83.7247 599.949 82.9367 601.171 82.1094C601.801 81.6761 602.431 81.2427 603.062 80.8094C603.377 80.6124 603.692 80.376 603.968 80.179C604.519 79.785 605.031 79.3123 605.583 78.9183C606.765 78.0122 607.947 77.1061 609.089 76.1606C609.877 75.5303 610.626 74.8605 611.374 74.1908C612.438 73.2453 613.501 72.2998 614.486 71.3543C615.195 70.6845 615.905 69.9754 616.574 69.3057C617.559 68.3208 618.505 67.3359 619.411 66.3116C620.041 65.6024 620.672 64.9327 621.302 64.1842C622.208 63.1205 623.075 62.0174 623.942 60.9537C624.336 60.4416 624.769 59.9688 625.163 59.4567C625.281 59.2991 625.399 59.1021 625.517 58.9445C626.739 57.2899 627.881 55.6352 628.945 53.9018C629.102 53.6654 629.26 53.4684 629.418 53.2321C630.599 51.3017 631.703 49.3319 632.727 47.3621C633.042 46.7711 633.318 46.1408 633.594 45.5498C634.263 44.1316 634.933 42.7133 635.485 41.2951C635.8 40.5465 636.076 39.798 636.351 39.0495C636.863 37.71 637.297 36.3705 637.73 35.0311C637.848 34.5977 638.045 34.1643 638.164 33.731C638.321 33.2188 638.439 32.7067 638.557 32.1552C638.715 31.643 638.833 31.0915 638.951 30.5793C639.306 29.1611 639.582 27.7034 639.857 26.2851C639.897 26.0094 639.976 25.7336 640.015 25.4578C640.291 23.7638 640.527 22.0304 640.685 20.3363C640.724 19.8636 640.764 19.3908 640.803 18.9181C640.842 18.1695 640.921 17.3816 640.961 16.6331C640.961 15.8058 641 14.9785 641 14.1117L640.961 14.0723Z" fill="white"/>
<path d="M585.827 369.839C585.985 361.425 583.547 353.148 577.315 345.422C566.896 332.526 549.478 324.918 531.078 323.66L531.117 311.098C531.117 311.098 531.117 311.236 531.117 311.315C531.196 304.06 528.699 296.708 523.332 290.083C508.116 271.27 475.718 265.352 450.929 276.912L259 366.418L365.472 498.093L553.96 410.198C555.002 409.766 556.044 409.333 557.047 408.861C558.108 408.37 559.15 407.839 560.153 407.308C560.467 407.131 560.782 406.954 561.097 406.778C561.785 406.404 562.453 406.011 563.121 405.618C563.475 405.401 563.809 405.185 564.144 404.989C564.773 404.595 565.363 404.202 565.972 403.789C566.287 403.573 566.601 403.357 566.916 403.141C567.073 403.042 567.23 402.924 567.368 402.826C567.643 402.63 567.899 402.394 568.174 402.197C568.764 401.745 569.353 401.293 569.923 400.821C570.317 400.506 570.69 400.172 571.064 399.838C571.594 399.366 572.125 398.894 572.617 398.423C572.97 398.088 573.324 397.734 573.659 397.4C574.15 396.909 574.622 396.417 575.074 395.906C575.388 395.552 575.703 395.218 576.018 394.845C576.47 394.314 576.902 393.763 577.335 393.233C577.531 392.977 577.748 392.741 577.944 392.486C578.003 392.407 578.062 392.309 578.121 392.23C578.731 391.404 579.301 390.579 579.831 389.714C579.91 389.596 579.989 389.497 580.067 389.38C580.657 388.416 581.207 387.433 581.719 386.45C581.876 386.155 582.014 385.841 582.151 385.546C582.485 384.838 582.82 384.131 583.095 383.423C583.252 383.049 583.39 382.676 583.527 382.302C583.783 381.634 583.999 380.966 584.215 380.297C584.274 380.081 584.373 379.865 584.432 379.648C584.51 379.393 584.569 379.137 584.628 378.862C584.707 378.607 584.766 378.331 584.825 378.076C585.002 377.368 585.139 376.641 585.277 375.933C585.297 375.795 585.336 375.658 585.356 375.52C585.493 374.675 585.611 373.81 585.69 372.964C585.709 372.729 585.729 372.493 585.749 372.257C585.768 371.883 585.808 371.49 585.827 371.117C585.827 370.704 585.847 370.291 585.847 369.858L585.827 369.839Z" fill="white"/>
<path d="M1264.99 53.0442C1265.09 47.6085 1263.51 42.2617 1259.49 37.2706C1252.76 28.9393 1241.51 24.0243 1229.62 23.2115L1229.64 15.0961C1229.64 15.0961 1229.64 15.185 1229.64 15.2358C1229.69 10.5494 1228.08 5.79958 1224.61 1.51962C1214.78 -10.6344 1193.85 -14.4572 1177.84 -6.98949L1053.85 50.8344L1122.63 135.9L1244.4 79.1176C1245.07 78.8382 1245.75 78.5588 1246.39 78.254C1247.08 77.9365 1247.75 77.5936 1248.4 77.2507C1248.6 77.1364 1248.81 77.0221 1249.01 76.9078C1249.46 76.6665 1249.89 76.4125 1250.32 76.1585C1250.55 76.0188 1250.76 75.8791 1250.98 75.7521C1251.39 75.4981 1251.77 75.2441 1252.16 74.9774C1252.36 74.8377 1252.57 74.698 1252.77 74.5583C1252.87 74.4948 1252.97 74.4186 1253.06 74.3551C1253.24 74.2281 1253.41 74.0757 1253.58 73.9487C1253.96 73.6566 1254.35 73.3645 1254.71 73.0596C1254.97 72.8564 1255.21 72.6405 1255.45 72.4246C1255.79 72.1198 1256.14 71.815 1256.45 71.5102C1256.68 71.2943 1256.91 71.0657 1257.13 70.8498C1257.44 70.5323 1257.75 70.2148 1258.04 69.8846C1258.24 69.656 1258.45 69.4401 1258.65 69.1988C1258.94 68.8559 1259.22 68.5003 1259.5 68.1574C1259.63 67.9923 1259.77 67.8399 1259.9 67.6748C1259.93 67.624 1259.97 67.5605 1260.01 67.5097C1260.4 66.9763 1260.77 66.4429 1261.11 65.8841C1261.17 65.8079 1261.22 65.7444 1261.27 65.6682C1261.65 65.0458 1262 64.4108 1262.33 63.7758C1262.44 63.5853 1262.52 63.3821 1262.61 63.1916C1262.83 62.7344 1263.04 62.2772 1263.22 61.82C1263.32 61.5787 1263.41 61.3374 1263.5 61.0961C1263.67 60.6643 1263.81 60.2325 1263.95 59.8007C1263.98 59.661 1264.05 59.5213 1264.09 59.3816C1264.14 59.2165 1264.18 59.0514 1264.21 58.8736C1264.26 58.7085 1264.3 58.5307 1264.34 58.3656C1264.45 57.9084 1264.54 57.4384 1264.63 56.9812C1264.65 56.8923 1264.67 56.8034 1264.68 56.7145C1264.77 56.1684 1264.85 55.6096 1264.9 55.0635C1264.91 54.9111 1264.92 54.7587 1264.94 54.6063C1264.95 54.365 1264.98 54.111 1264.99 53.8697C1264.99 53.603 1265 53.3363 1265 53.0569L1264.99 53.0442Z" fill="white"/>
<path opacity="0.1" d="M1143.47 387.745L1117.5 355.674L1128.12 350.722C1134.71 347.649 1141.32 347.717 1146.04 353.548L1146.19 353.727C1149.06 357.271 1148.82 360.717 1145.44 363.656C1151.76 361.943 1156.45 363.28 1159.97 367.631L1160.11 367.81C1164.87 373.686 1162.77 378.744 1155.66 382.061L1143.47 387.745ZM1132.07 368.775L1139.87 365.141C1145.57 362.482 1146.54 359.061 1143.27 355.024L1143.13 354.845C1139.75 350.673 1135.19 350.204 1129.7 352.765L1122.01 356.351L1132.07 368.775ZM1144.71 384.385L1153.97 380.067C1159.83 377.335 1160.89 373.568 1157.29 369.127L1157.14 368.948C1153.58 364.552 1148.47 363.846 1141.93 366.895L1133.67 370.749L1144.71 384.385ZM1191.34 365.916C1180.67 370.892 1167.19 367.231 1159.92 358.261L1159.63 357.902C1152.26 348.796 1154.17 338.079 1164.69 333.176C1175.25 328.249 1188.66 331.82 1195.96 340.835L1196.25 341.194C1203.59 350.255 1201.8 361.037 1191.34 365.916ZM1189.63 363.808C1198.58 359.637 1199.83 350.772 1193.18 342.564L1192.89 342.205C1186.57 334.401 1175.51 330.971 1166.36 335.24C1157.2 339.508 1156.04 348.393 1162.58 356.467L1162.87 356.825C1169.48 364.989 1180.95 367.857 1189.63 363.808ZM1233.23 346.383C1222.56 351.359 1209.07 347.699 1201.81 338.728L1201.52 338.369C1194.14 329.264 1196.06 318.547 1206.57 313.644C1217.14 308.717 1230.55 312.287 1237.85 321.303L1238.14 321.662C1245.48 330.722 1243.69 341.505 1233.23 346.383ZM1231.52 344.275C1240.47 340.104 1241.72 331.24 1235.07 323.032L1234.78 322.673C1228.46 314.868 1217.4 311.439 1208.24 315.707C1199.09 319.976 1197.93 328.86 1204.46 336.934L1204.75 337.293C1211.36 345.456 1222.84 348.324 1231.52 344.275ZM1258.56 334.078L1232.59 302.007L1235.52 300.641L1248.3 316.43L1253.67 292.177L1257.02 290.616L1251.56 314.665L1283.88 322.272L1280.32 323.931L1248.38 316.519L1261.49 332.712L1258.56 334.078ZM1300.03 315.233C1290.77 319.55 1283.41 317.049 1278.38 312.167L1281.26 310.826C1285.15 314.57 1290.57 316.804 1298.36 313.17C1304.22 310.438 1305.68 305.742 1302.48 301.795C1298.85 297.309 1295.07 296.91 1286.73 299.436C1277.74 302.209 1271.93 301.706 1267.82 296.638C1263.79 291.659 1265.79 286.031 1272.8 282.762C1279.76 279.518 1286.39 280.502 1291.37 285.226L1288.7 286.47C1284.58 282.892 1280.01 282.24 1274.47 284.825C1268.72 287.508 1267.27 291.333 1270.4 295.19C1273.23 298.689 1276.8 299.621 1285.39 296.974C1294.63 294.147 1300.29 294.288 1305.16 300.298C1309.26 305.367 1307.56 311.721 1300.03 315.233ZM1178.77 436.59L1166.24 398.25L1170.12 396.445L1209.53 422.247L1206.6 423.613L1194.51 415.717L1177.67 423.571L1181.54 435.297L1178.77 436.59ZM1169.75 399.46L1176.87 421.163L1192.04 414.089L1169.75 399.46ZM1216.08 419.191L1190.11 387.12L1200.73 382.169C1207.32 379.095 1213.93 379.163 1218.66 384.994L1218.8 385.174C1221.67 388.717 1221.44 392.164 1218.05 395.102C1224.37 393.389 1229.06 394.726 1232.58 399.077L1232.73 399.256C1237.49 405.132 1235.38 410.19 1228.27 413.508L1216.08 419.191ZM1204.69 400.222L1212.48 396.587C1218.18 393.929 1219.16 390.507 1215.89 386.47L1215.74 386.291C1212.37 382.12 1207.81 381.651 1202.31 384.212L1194.62 387.797L1204.69 400.222ZM1217.33 415.831L1226.58 411.514C1232.44 408.782 1233.5 405.014 1229.9 400.574L1229.76 400.394C1226.2 395.998 1221.09 395.292 1214.55 398.341L1206.28 402.195L1217.33 415.831ZM1263.95 397.362C1253.28 402.338 1239.8 398.678 1232.53 389.707L1232.24 389.348C1224.87 380.243 1226.79 369.525 1237.3 364.623C1247.87 359.696 1261.28 363.266 1268.58 372.282L1268.87 372.641C1276.21 381.701 1274.42 392.484 1263.95 397.362ZM1262.25 395.254C1271.19 391.083 1272.45 382.219 1265.8 374.01L1265.51 373.652C1259.19 365.847 1248.12 362.417 1238.97 366.686C1229.82 370.955 1228.65 379.839 1235.19 387.913L1235.48 388.272C1242.09 396.435 1253.56 399.303 1262.25 395.254ZM1302.41 379.37C1293.98 383.297 1285.67 381.488 1279.46 373.818L1262.79 353.23L1265.67 351.888L1282.12 372.207C1287.68 379.07 1293.79 380.482 1300.75 377.238C1307.92 373.896 1309.13 369.253 1302.99 361.672L1287.01 341.937L1289.94 340.571L1306.21 360.665C1312.42 368.335 1311.72 375.028 1302.41 379.37ZM1333.21 364.575L1308.91 334.568L1297.3 339.983L1295.62 337.92L1321.73 325.748L1323.4 327.811L1311.78 333.226L1336.08 363.233L1333.21 364.575ZM1366.98 348.826L1341.01 316.756L1362.3 306.828L1363.97 308.891L1345.61 317.453L1355.93 330.191L1370.36 323.459L1372.03 325.523L1357.6 332.255L1369.91 347.46L1366.98 348.826ZM1410.92 328.831C1400.25 333.807 1386.76 330.147 1379.5 321.176L1379.21 320.818C1371.84 311.712 1373.75 300.995 1384.26 296.092C1394.83 291.165 1408.24 294.735 1415.54 303.751L1415.83 304.11C1423.17 313.17 1421.38 323.953 1410.92 328.831ZM1409.21 326.723C1418.16 322.552 1419.41 313.688 1412.76 305.48L1412.47 305.121C1406.15 297.316 1395.09 293.887 1385.93 298.155C1376.78 302.424 1375.62 311.309 1382.15 319.382L1382.44 319.741C1389.06 327.905 1400.53 330.772 1409.21 326.723ZM1452.81 309.299C1442.14 314.275 1428.65 310.615 1421.39 301.644L1421.1 301.285C1413.72 292.18 1415.64 281.462 1426.15 276.56C1436.72 271.632 1450.13 275.203 1457.43 284.219L1457.72 284.577C1465.06 293.638 1463.27 304.421 1452.81 309.299ZM1451.1 307.191C1460.04 303.02 1461.3 294.155 1454.65 285.947L1454.36 285.588C1448.04 277.784 1436.98 274.354 1427.82 278.623C1418.67 282.891 1417.5 291.776 1424.04 299.85L1424.33 300.209C1430.94 308.372 1442.42 311.24 1451.1 307.191ZM1478.14 296.993L1452.17 264.923L1461.9 260.386C1474.24 254.63 1486.04 258.52 1493.27 267.446L1493.59 267.85C1500.78 276.731 1500.52 286.554 1487.76 292.505L1478.14 296.993ZM1479.39 293.564L1485.99 290.491C1496.6 285.539 1497.13 277.383 1490.52 269.22L1490.23 268.861C1483.84 260.967 1474.29 257.449 1463.3 262.571L1456.77 265.62L1479.39 293.564ZM1228.62 478.654L1204.32 448.646L1192.7 454.061L1191.03 451.998L1217.13 439.827L1218.81 441.89L1207.19 447.305L1231.49 477.312L1228.62 478.654ZM1263.83 462.728C1253.16 467.704 1239.67 464.044 1232.41 455.073L1232.12 454.714C1224.74 445.609 1226.66 434.892 1237.17 429.989C1247.74 425.062 1261.15 428.632 1268.45 437.648L1268.74 438.007C1276.08 447.067 1274.29 457.85 1263.83 462.728ZM1262.12 460.62C1271.06 456.449 1272.32 447.585 1265.67 439.377L1265.38 439.018C1259.06 431.213 1248 427.784 1238.84 432.052C1229.69 436.321 1228.52 445.206 1235.06 453.279L1235.35 453.638C1241.96 461.802 1253.44 464.669 1262.12 460.62ZM1289.16 450.423L1263.19 418.352L1273.07 413.742C1280.34 410.352 1287.87 410.303 1293.14 416.806L1293.28 416.986C1298.62 423.579 1295.25 428.673 1287.98 432.063L1280.97 435.332L1292.09 449.057L1289.16 450.423ZM1279.34 433.313L1286.56 429.947C1292.57 427.142 1294.35 423.286 1290.35 418.352L1290.21 418.172C1285.99 412.969 1280.76 413.001 1274.9 415.732L1267.79 419.05L1279.34 433.313ZM1336.99 428.118L1313.13 398.649L1308.69 407.763L1306.8 405.431L1311.44 395.853L1313.9 394.706L1339.87 426.777L1336.99 428.118ZM1363.91 416.058C1355.02 420.204 1344.92 417.069 1337.36 407.739L1335.18 405.048C1327.59 395.674 1328.31 387.489 1337.2 383.343C1346.1 379.196 1356.22 382.445 1363.63 391.596L1365.85 394.332C1373.4 403.661 1372.96 411.838 1363.91 416.058ZM1362.21 413.949C1369.58 410.51 1369.73 404.199 1362.83 395.677L1360.65 392.986C1354.29 385.137 1346.04 382.064 1338.88 385.406C1331.76 388.723 1331.44 395.36 1338.13 403.613L1340.34 406.349C1347.24 414.871 1355.09 417.267 1362.21 413.949Z" fill="#1D1D1B"/>
<path opacity="0.1" d="M1122.28 65.8586L1118.78 66.0709L1117.38 56.1569L1119.74 56.0452L1122.28 65.8586ZM1147.81 86.5818L1147.34 85.9987L1151.56 65.6766C1152.7 60.3243 1152.23 56.5307 1149.43 53.0769C1145.98 48.8158 1140.95 47.9469 1136.14 50.191C1131.33 52.435 1129.85 56.3977 1133.37 61.9871L1130.65 63.2555C1126.32 56.9319 1127.93 51.1767 1134.47 48.1277C1140.9 45.1275 1147.93 46.2388 1152.43 51.8007C1155.59 55.703 1155.99 60.4621 1154.51 66.466L1150.74 82.372L1170.46 73.1763L1172.13 75.2396L1147.81 86.5818ZM1193.79 65.1396L1187.94 57.9182L1168.64 66.9188L1168.03 66.1562L1166.62 33.6302L1170.7 31.7276L1189.15 54.5133L1194.33 52.0985L1196 54.1618L1190.82 56.5766L1196.67 63.7981L1193.79 65.1396ZM1170.84 63.0505L1186.27 55.8549L1169.31 34.9082L1170.84 63.0505Z" fill="#1D1D1B"/>
<path opacity="0.1" d="M372.759 388.975L367.362 389.302L365.207 374.027L368.843 373.855L372.759 388.975ZM412.086 420.903L411.358 420.005L417.868 388.694C419.628 380.448 418.891 374.603 414.582 369.282C409.266 362.717 401.521 361.378 394.106 364.836C386.692 368.293 384.419 374.398 389.838 383.01L385.647 384.964C378.979 375.221 381.458 366.354 391.532 361.657C401.445 357.034 412.268 358.747 419.207 367.316C424.076 373.328 424.685 380.66 422.405 389.911L416.604 414.417L446.987 400.249L449.561 403.428L412.086 420.903ZM482.932 387.867L473.922 376.741L444.183 390.608L443.232 389.433L441.066 339.32L447.352 336.389L475.78 371.495L483.759 367.775L486.333 370.954L478.354 374.674L487.364 385.8L482.932 387.867ZM447.573 384.648L471.348 373.562L445.214 341.289L447.573 384.648Z" fill="#1D1D1B"/>
<rect width="1680" height="480" fill="url(#paint0_linear_4261_17591)"/>
<path opacity="0.1" d="M143.465 89.8334L117.495 57.7629L128.114 52.8113C134.704 49.738 141.317 49.8059 146.039 55.6369L146.184 55.8163C149.053 59.3597 148.818 62.8063 145.432 65.7444C151.756 64.0316 156.442 65.3686 159.965 69.7195L160.11 69.8989C164.868 75.7747 162.767 80.8328 155.653 84.1501L143.465 89.8334ZM132.068 70.8643L139.862 67.2299C145.563 64.5712 146.54 61.1498 143.271 57.113L143.125 56.9336C139.748 52.7621 135.188 52.293 129.696 54.8542L122.006 58.4398L132.068 70.8643ZM144.708 86.4734L153.966 82.156C159.825 79.4241 160.881 75.6566 157.285 71.216L157.14 71.0366C153.581 66.6409 148.469 65.9349 141.93 68.9839L133.666 72.8378L144.708 86.4734ZM191.337 68.0046C180.666 72.9805 167.181 69.3203 159.917 60.3495L159.626 59.9907C152.253 50.8853 154.167 40.168 164.681 35.2652C175.248 30.3381 188.66 33.9086 195.961 42.9242L196.251 43.283C203.588 52.3435 201.799 63.1262 191.337 68.0046ZM189.63 65.8964C198.575 61.7254 199.828 52.8612 193.181 44.6529L192.89 44.2941C186.57 36.4895 175.506 33.0599 166.352 37.3285C157.198 41.5971 156.034 50.4818 162.572 58.5555L162.862 58.9143C169.473 67.0777 180.947 69.9455 189.63 65.8964ZM233.225 48.472C222.554 53.448 209.069 49.7877 201.805 40.8169L201.514 40.4581C194.141 31.3528 196.055 20.6354 206.569 15.7327C217.135 10.8055 230.547 14.3761 237.848 23.3917L238.139 23.7505C245.476 32.811 243.687 43.5936 233.225 48.472ZM231.518 46.3639C240.462 42.1929 241.715 33.3286 235.069 25.1204L234.778 24.7615C228.458 16.957 217.394 13.5274 208.24 17.7959C199.086 22.0645 197.921 30.9492 204.459 39.0229L204.75 39.3818C211.361 47.5451 222.835 50.4129 231.518 46.3639ZM258.554 36.1665L232.584 4.09604L235.513 2.7301L248.298 18.5186L253.664 -5.73388L257.012 -7.29496L251.553 16.7537L283.871 24.3608L280.314 26.0195L248.371 18.6083L261.483 34.8006L258.554 36.1665ZM300.027 17.3219C290.768 21.6393 283.41 19.1383 278.376 14.2563L281.253 12.9147C285.15 16.6589 290.562 18.893 298.356 15.2586C304.214 12.5267 305.672 7.83063 302.476 3.8835C298.843 -0.601885 295.061 -1.00096 286.73 1.52469C277.734 4.29818 271.922 3.79517 267.818 -1.27331C263.786 -6.25208 265.786 -11.8806 272.795 -15.1491C279.752 -18.3933 286.386 -17.4086 291.364 -12.6856L288.696 -11.4416C284.574 -15.0189 280.011 -15.6714 274.466 -13.0859C268.712 -10.4028 267.269 -6.57853 270.393 -2.7211C273.226 0.777495 276.791 1.71007 285.384 -0.937532C294.626 -3.76374 300.288 -3.62349 305.155 2.38692C309.259 7.4554 307.559 13.8095 300.027 17.3219ZM178.767 138.678L166.241 100.339L170.111 98.5342L209.525 124.336L206.596 125.702L194.509 117.806L177.665 125.66L181.54 137.386L178.767 138.678ZM169.742 101.549L176.868 123.251L192.037 116.178L169.742 101.549ZM216.079 121.28L190.109 89.2093L200.727 84.2577C207.318 81.1844 213.931 81.2522 218.653 87.0832L218.798 87.2627C221.667 90.8061 221.432 94.2527 218.046 97.1908C224.37 95.4779 229.055 96.815 232.579 101.166L232.724 101.345C237.482 107.221 235.381 112.279 228.267 115.596L216.079 121.28ZM204.681 102.311L212.475 98.6763C218.177 96.0176 219.154 92.5962 215.885 88.5594L215.739 88.3799C212.361 84.2085 207.802 83.7394 202.31 86.3005L194.62 89.8862L204.681 102.311ZM217.321 117.92L226.58 113.602C232.439 110.871 233.495 107.103 229.899 102.662L229.754 102.483C226.194 98.0873 221.083 97.3813 214.544 100.43L206.28 104.284L217.321 117.92ZM263.951 99.4509C253.28 104.427 239.795 100.767 232.531 91.7959L232.24 91.437C224.867 82.3317 226.781 71.6144 237.295 66.7116C247.861 61.7844 261.274 65.355 268.574 74.3706L268.865 74.7294C276.202 83.7899 274.413 94.5726 263.951 99.4509ZM262.244 97.3428C271.189 93.1718 272.442 84.3076 265.795 76.0993L265.504 75.7405C259.184 67.9359 248.12 64.5063 238.966 68.7749C229.812 73.0435 228.648 81.9282 235.186 90.0019L235.476 90.3607C242.087 98.5241 253.561 101.392 262.244 97.3428ZM302.402 81.459C293.981 85.3861 285.67 83.5768 279.459 75.9068L262.787 55.3189L265.664 53.9773L282.118 74.2961C287.675 81.1587 293.79 82.5706 300.748 79.3265C307.914 75.9848 309.126 71.3414 302.987 63.7611L287.006 44.0255L289.935 42.6595L306.207 62.754C312.418 70.424 311.713 77.1173 302.402 81.459ZM333.203 66.6639L308.904 36.6567L297.291 42.0717L295.62 40.0084L321.722 27.8369L323.393 29.9002L311.781 35.3152L336.08 65.3223L333.203 66.6639ZM366.977 50.915L341.007 18.8445L362.296 8.91699L363.967 10.9803L345.607 19.5418L355.922 32.2803L370.359 25.5481L372.03 27.6114L357.593 34.3436L369.906 49.549L366.977 50.915ZM410.915 30.9203C400.245 35.8962 386.76 32.236 379.495 23.2652L379.205 22.9064C371.831 13.8011 373.746 3.08371 384.26 -1.81905C394.826 -6.74621 408.238 -3.17566 415.539 5.83995L415.829 6.19878C423.166 15.2593 421.377 26.0419 410.915 30.9203ZM409.208 28.8122C418.153 24.6412 419.406 15.7769 412.759 7.56866L412.469 7.20982C406.149 -0.594739 395.084 -4.02435 385.93 0.244223C376.776 4.5128 375.612 13.3975 382.15 21.4712L382.441 21.83C389.051 29.9934 400.525 32.8612 409.208 28.8122ZM452.803 11.3878C442.132 16.3637 428.647 12.7034 421.383 3.73269L421.092 3.37385C413.719 -5.73147 415.633 -16.4488 426.147 -21.3516C436.714 -26.2787 450.126 -22.7082 457.426 -13.6926L457.717 -13.3338C465.054 -4.27329 463.265 6.50938 452.803 11.3878ZM451.096 9.27963C460.041 5.10862 461.294 -3.75564 454.647 -11.9639L454.356 -12.3227C448.036 -20.1273 436.972 -23.5569 427.818 -19.2883C418.664 -15.0197 417.5 -6.13502 424.038 1.93866L424.328 2.2975C430.939 10.4609 442.413 13.3287 451.096 9.27963ZM478.132 -0.917756L452.162 -32.9882L461.892 -37.5251C474.236 -43.2816 486.034 -39.3908 493.262 -30.4649L493.589 -30.0612C500.781 -21.1802 500.52 -11.3575 487.757 -5.40586L478.132 -0.917756ZM479.391 -4.34698L485.982 -7.42035C496.6 -12.3719 497.13 -20.528 490.519 -28.6914L490.228 -29.0502C483.836 -36.9445 474.286 -40.4622 463.301 -35.3399L456.762 -32.2909L479.391 -4.34698ZM228.612 180.742L204.312 150.735L192.7 156.15L191.029 154.087L217.131 141.915L218.802 143.979L207.189 149.394L231.488 179.401L228.612 180.742ZM263.823 164.817C253.152 169.793 239.668 166.133 232.403 157.162L232.113 156.803C224.739 147.698 226.653 136.981 237.167 132.078C247.734 127.151 261.146 130.721 268.447 139.737L268.737 140.096C276.074 149.156 274.285 159.939 263.823 164.817ZM262.116 162.709C271.061 158.538 272.314 149.674 265.667 141.466L265.376 141.107C259.056 133.302 247.992 129.873 238.838 134.141C229.684 138.41 228.52 147.294 235.058 155.368L235.348 155.727C241.959 163.89 253.433 166.758 262.116 162.709ZM289.153 152.512L263.182 120.441L273.069 115.831C280.34 112.441 287.866 112.391 293.133 118.895L293.278 119.075C298.617 125.668 295.248 130.762 287.977 134.152L280.967 137.421L292.082 151.146L289.153 152.512ZM279.333 135.402L286.551 132.036C292.567 129.231 294.344 125.375 290.349 120.441L290.203 120.261C285.99 115.058 280.755 115.089 274.896 117.821L267.782 121.139L279.333 135.402ZM336.985 130.207L313.121 100.738L308.684 109.852L306.795 107.519L311.433 97.9415L313.892 96.7951L339.862 128.866L336.985 130.207ZM363.909 118.146C355.017 122.293 344.911 119.158 337.356 109.828L335.177 107.137C327.586 97.7626 328.308 89.5781 337.201 85.4315C346.093 81.2849 356.219 84.5343 363.629 93.6845L365.844 96.4206C373.399 105.75 372.959 113.927 363.909 118.146ZM362.202 116.038C369.578 112.599 369.728 106.288 362.826 97.766L360.647 95.0748C354.291 87.2254 346.038 84.1531 338.872 87.4948C331.758 90.8121 331.439 97.4487 338.122 105.702L340.338 108.438C347.239 116.96 355.088 119.356 362.202 116.038Z" fill="#1D1D1B"/>
</g>
<defs>
<linearGradient id="paint0_linear_4261_17591" x1="840" y1="0" x2="840" y2="480" gradientUnits="userSpaceOnUse">
<stop stop-color="#EFEDEA" stop-opacity="0"/>
<stop offset="1" stop-color="#EFEDEA"/>
</linearGradient>
<clipPath id="clip0_4261_17591">
<rect width="1680" height="472" fill="white"/>
</clipPath>
</defs>
</svg>
