<svg width="375" height="340" viewBox="0 0 375 340" fill="none" xmlns="http://www.w3.org/2000/svg">
<g clip-path="url(#clip0_4156_37483)">
<path d="M512.14 40.8528C512.242 35.4171 510.667 30.0703 506.641 25.0792C499.91 16.7479 488.658 11.8329 476.77 11.0201L476.796 2.90469C476.796 2.90469 476.796 2.99359 476.796 3.04439C476.847 -1.64197 475.234 -6.39183 471.766 -10.6718C461.937 -22.8258 441.007 -26.6486 424.992 -19.1809L301 38.643L369.784 123.709L491.553 66.9262C492.226 66.6468 492.9 66.3674 493.547 66.0626C494.233 65.7451 494.906 65.4022 495.554 65.0593C495.757 64.945 495.96 64.8307 496.164 64.7164C496.608 64.4751 497.04 64.2211 497.472 63.9671C497.7 63.8274 497.916 63.6877 498.132 63.5607C498.538 63.3067 498.919 63.0527 499.313 62.786C499.516 62.6463 499.72 62.5066 499.923 62.3669C500.024 62.3034 500.126 62.2272 500.215 62.1637C500.393 62.0367 500.558 61.8843 500.736 61.7572C501.117 61.4651 501.498 61.173 501.866 60.8682C502.12 60.665 502.361 60.4491 502.603 60.2332C502.945 59.9284 503.288 59.6236 503.606 59.3188C503.834 59.1029 504.063 58.8743 504.279 58.6584C504.596 58.3409 504.901 58.0234 505.193 57.6932C505.397 57.4646 505.6 57.2487 505.803 57.0074C506.095 56.6645 506.374 56.3089 506.654 55.966C506.781 55.8009 506.921 55.6485 507.048 55.4834C507.086 55.4326 507.124 55.3691 507.162 55.3183C507.556 54.7849 507.924 54.2515 508.267 53.6926C508.318 53.6164 508.368 53.5529 508.419 53.4767C508.8 52.8544 509.156 52.2194 509.486 51.5844C509.588 51.3939 509.676 51.1907 509.765 51.0002C509.981 50.543 510.197 50.0858 510.375 49.6286C510.477 49.3873 510.566 49.146 510.654 48.9047C510.82 48.4729 510.959 48.0411 511.099 47.6093C511.137 47.4696 511.201 47.3299 511.239 47.1902C511.289 47.0251 511.328 46.86 511.366 46.6822C511.416 46.5171 511.455 46.3393 511.493 46.1742C511.607 45.7169 511.696 45.247 511.785 44.7898C511.797 44.7009 511.823 44.612 511.836 44.5231C511.924 43.977 512.001 43.4182 512.051 42.8721C512.064 42.7197 512.077 42.5673 512.09 42.4149C512.102 42.1736 512.128 41.9196 512.14 41.6783C512.14 41.4116 512.153 41.1449 512.153 40.8655L512.14 40.8528Z" fill="#1D1D1B" fill-opacity="0.05"/>
<path d="M91.1403 17.8528C91.2419 12.4171 89.6671 7.07034 85.6412 2.07918C78.9101 -6.25213 67.6577 -11.1671 55.7704 -11.9799L55.7958 -20.0953C55.7958 -20.0953 55.7958 -20.0064 55.7958 -19.9556C55.8466 -24.642 54.2336 -29.3918 50.7665 -33.6718C40.9366 -45.8258 20.0067 -49.6486 3.99175 -42.1809L-120 15.643L-51.2159 100.709L70.5533 43.9262C71.2265 43.6468 71.8996 43.3674 72.5473 43.0626C73.2331 42.7451 73.9062 42.4022 74.5539 42.0593C74.7571 41.945 74.9603 41.8307 75.1635 41.7164C75.608 41.4751 76.0398 41.2211 76.4716 40.9671C76.7002 40.8274 76.9161 40.6877 77.132 40.5607C77.5384 40.3067 77.9195 40.0527 78.3132 39.786C78.5164 39.6463 78.7196 39.5066 78.9228 39.3669C79.0244 39.3034 79.126 39.2272 79.2149 39.1637C79.3927 39.0367 79.5578 38.8843 79.7356 38.7572C80.1166 38.4651 80.4976 38.173 80.8659 37.8682C81.1199 37.665 81.3612 37.4491 81.6025 37.2332C81.9454 36.9284 82.2883 36.6236 82.6058 36.3188C82.8344 36.1029 83.063 35.8743 83.2789 35.6584C83.5964 35.3409 83.9012 35.0234 84.1933 34.6932C84.3965 34.4646 84.5997 34.2487 84.8029 34.0074C85.095 33.6645 85.3745 33.3089 85.6539 32.966C85.7809 32.8009 85.9206 32.6485 86.0476 32.4834C86.0857 32.4326 86.1238 32.3691 86.1619 32.3183C86.5556 31.7849 86.9239 31.2515 87.2668 30.6926C87.3176 30.6164 87.3684 30.5529 87.4192 30.4767C87.8002 29.8544 88.1558 29.2194 88.486 28.5844C88.5876 28.3939 88.6765 28.1907 88.7654 28.0002C88.9813 27.543 89.1972 27.0858 89.375 26.6286C89.4766 26.3873 89.5655 26.146 89.6544 25.9047C89.8195 25.4729 89.9592 25.0411 90.0989 24.6093C90.137 24.4696 90.2005 24.3299 90.2386 24.1902C90.2894 24.0251 90.3275 23.86 90.3656 23.6822C90.4164 23.5171 90.4545 23.3393 90.4926 23.1742C90.6069 22.7169 90.6958 22.247 90.7847 21.7898C90.7974 21.7009 90.8228 21.612 90.8355 21.5231C90.9244 20.977 91.0006 20.4182 91.0514 19.8721C91.0641 19.7197 91.0768 19.5673 91.0895 19.4149C91.1022 19.1736 91.1276 18.9196 91.1403 18.6783C91.1403 18.4116 91.153 18.1449 91.153 17.8655L91.1403 17.8528Z" fill="#1D1D1B" fill-opacity="0.05"/>
</g>
<defs>
<clipPath id="clip0_4156_37483">
<rect width="375" height="340" fill="white"/>
</clipPath>
</defs>
</svg>
