<svg width="150" height="20" viewBox="0 0 150 20" fill="none" xmlns="http://www.w3.org/2000/svg">
<path fill-rule="evenodd" clip-rule="evenodd" d="M24.5654 6.24554C24.5939 6.02373 24.6076 5.80013 24.6063 5.5764C24.608 5.34562 24.5943 5.11501 24.5654 4.88617C24.4138 3.87474 23.9542 2.93896 23.2526 2.21369C22.8677 1.80692 22.4233 1.46468 21.9356 1.1994C21.6212 1.00467 21.2847 0.850594 20.9335 0.740665C20.0376 0.513272 19.1158 0.411343 18.1933 0.437642H17.4612L6.14042 0.458687L0.586338 0.458687C0.455328 0.458687 0.349123 0.567971 0.349123 0.702789V1.41825C0.348821 1.54444 0.443566 1.64929 0.565888 1.65815H0.721304C0.86854 1.70024 1.01578 1.70024 1.16711 1.70024C1.50782 1.70684 1.84728 1.74487 2.1814 1.81387C2.31385 1.84131 2.44098 1.89108 2.55767 1.96117C2.73095 2.11335 2.8347 2.33299 2.84396 2.56721C2.89097 2.95388 2.91283 3.34334 2.9094 3.73301V7.17148C2.9094 7.39872 2.9094 7.63017 2.9094 7.83641C2.9094 8.0805 2.9094 8.31202 2.9094 8.47611C2.93186 8.75188 2.8448 9.02515 2.66809 9.23368C2.46988 9.33763 2.24793 9.38424 2.02598 9.36834H1.94418C1.74787 9.36834 1.58836 9.36834 1.42068 9.36834C1.25299 9.36834 1.01168 9.36834 0.713125 9.39784H0.557708C0.490049 9.40576 0.4288 9.44273 0.389072 9.49968C0.349344 9.55657 0.334834 9.62814 0.349123 9.69666V10.4121C0.350782 10.5398 0.44631 10.6454 0.569978 10.6562H0.721304C0.950338 10.6773 1.1303 10.6773 1.35115 10.6773H1.8174H2.19775H2.23048C2.46769 10.6773 2.69672 10.6983 2.81124 10.9803C2.84178 11.055 2.85842 11.1349 2.86032 11.2159V11.2749C2.86032 11.5105 2.89713 11.7504 2.90122 11.9904C2.90531 12.2303 2.90122 12.4112 2.90122 12.6174V14.8691C2.90122 15.029 2.90122 15.1931 2.90122 15.3615C2.91935 15.8581 2.91253 16.3554 2.88077 16.8513C2.86144 17.2201 2.71666 17.5703 2.47178 17.8404C2.20707 18.0766 1.86919 18.2079 1.51883 18.2107H1.30207H1.16711H0.88899C0.774473 18.2107 0.664045 18.2107 0.557708 18.2402H0.47182C0.361393 18.2402 0.361393 18.358 0.361393 18.4001C0.349115 18.4438 0.344953 18.4895 0.349123 18.5348V19.3428C0.348996 19.3964 0.369595 19.4479 0.406382 19.4859C0.484005 19.5483 0.582866 19.5756 0.680405 19.5617H17.3754C17.7434 19.5617 18.1933 19.5617 18.6023 19.5617H18.7537C19.1979 19.5656 19.6418 19.5403 20.0829 19.4859C20.3784 19.4471 20.67 19.3809 20.954 19.2881C21.2975 19.1699 21.6289 19.0177 21.9438 18.8336C22.4281 18.5599 22.8694 18.2122 23.2526 17.8024C23.9542 17.0772 24.4138 16.1414 24.5654 15.13C24.5939 14.9082 24.6076 14.6846 24.6063 14.4608C24.6082 14.23 24.5945 13.9994 24.5654 13.7706C24.3543 12.4223 23.6152 11.2221 22.5205 10.45L21.9152 10.008L22.5205 9.58722C23.6213 8.8117 24.3615 7.60227 24.5654 6.24554ZM22.4343 12.1755C22.9695 12.8026 23.2824 13.5978 23.3218 14.4314C23.2894 15.2766 22.9761 16.0848 22.4343 16.7209C22.1209 17.099 21.7458 17.4179 21.326 17.6636C21.2039 17.7323 21.0783 17.7941 20.9497 17.8488C19.9927 18.2697 18.9047 18.2444 17.8414 18.2192H17.1338H5.1668C4.88515 18.218 4.61552 18.1016 4.41751 17.8954C4.2195 17.6893 4.10943 17.4105 4.1116 17.1207V11.2286C4.11604 10.9314 4.35031 10.6922 4.6392 10.6899H9.78023C11.0358 10.6899 12.4304 10.6899 13.7801 10.6899H17.2033H17.8455C18.7406 10.6226 19.6405 10.7007 20.5121 10.9214C21.2681 11.1215 21.9426 11.5636 22.4384 12.184L22.4343 12.1755ZM21.3464 8.77071C20.4098 9.31362 19.2237 9.31784 18.3567 9.31784C15.6369 9.31784 12.913 9.31784 10.5859 9.31784H4.65141C4.35551 9.31784 4.11563 9.071 4.11563 8.7665C4.11563 7.47445 4.11563 6.24132 4.11563 5.14287V2.54194C4.11563 2.14447 4.42875 1.82226 4.81501 1.82226H11.1543C11.7106 1.82226 12.2749 1.82226 12.823 1.82226H12.8435C13.7228 1.82226 14.7167 1.82226 15.6696 1.82226C16.1236 1.82226 16.5816 1.82226 17.0234 1.82226H17.0438C17.6 1.82226 18.1726 1.80121 18.737 1.82226C19.6654 1.86014 20.7288 1.94852 21.559 2.52089C22.3303 3.03214 22.9078 3.80018 23.195 4.69676C23.2801 4.98077 23.3282 5.27513 23.3382 5.57218V5.5974C23.2904 6.4284 22.972 7.21866 22.4343 7.84062C22.1273 8.21369 21.7591 8.52847 21.3464 8.77071Z" fill="#573BA3"/>
<path d="M38.0538 8.14962C39.2575 8.14962 40.1991 8.4416 40.8785 9.02563C41.5698 9.60966 41.9154 10.3427 41.9154 11.2246C41.9154 12.2138 41.5399 13.0362 40.7891 13.6917C40.0382 14.3473 38.9239 14.675 37.4459 14.675H31.1172V14.1387C31.8085 14.1029 32.2673 13.954 32.4938 13.6917C32.7321 13.4176 32.8513 12.9051 32.8513 12.1542V4.68133C32.8513 3.91852 32.7321 3.40605 32.4938 3.14384C32.2673 2.88163 31.8085 2.73265 31.1172 2.69689V2.16056H37.285C38.5722 2.16056 39.5675 2.43468 40.2706 2.98294C40.9738 3.53119 41.3254 4.27608 41.3254 5.21766C41.3254 5.99234 41.0215 6.64789 40.4136 7.18422C39.8177 7.72055 39.0251 8.0066 38.0359 8.04235H37.4102V8.14962H38.0538ZM36.6236 2.83991H34.8358V7.77419H36.7845C37.5711 7.77419 38.1789 7.56559 38.608 7.14846C39.049 6.7194 39.2695 6.11155 39.2695 5.32493C39.2695 4.39528 39.049 3.75168 38.608 3.39413C38.167 3.02465 37.5055 2.83991 36.6236 2.83991ZM37.1241 13.9957C38.018 13.9957 38.6914 13.7513 39.1443 13.2627C39.5972 12.774 39.8237 12.1006 39.8237 11.2425C39.8237 10.3724 39.5734 9.69305 39.0728 9.20441C38.5722 8.70383 37.875 8.45354 36.9811 8.45354H34.8358V12.9051C34.8358 13.2627 34.9192 13.5368 35.0861 13.7275C35.2529 13.9063 35.5389 13.9957 35.9442 13.9957H37.1241ZM50.7271 13.5845C49.8928 14.4545 48.8261 14.8896 47.527 14.8896C46.2278 14.8896 45.1552 14.4545 44.309 13.5845C43.4746 12.7144 43.0575 11.606 43.0575 10.2592C43.0575 8.9243 43.4746 7.82188 44.309 6.95181C45.1552 6.06986 46.2278 5.62885 47.527 5.62885C48.8261 5.62885 49.8928 6.06986 50.7271 6.95181C51.5733 7.82188 51.9964 8.9243 51.9964 10.2592C51.9964 11.606 51.5733 12.7144 50.7271 13.5845ZM45.1492 10.2592C45.1492 12.7978 45.9418 14.0672 47.527 14.0672C49.1122 14.0672 49.9047 12.7978 49.9047 10.2592C49.9047 7.72055 49.1122 6.45123 47.527 6.45123C45.9418 6.45123 45.1492 7.72055 45.1492 10.2592ZM60.8708 13.5845C60.0366 14.4545 58.9698 14.8896 57.6707 14.8896C56.3716 14.8896 55.299 14.4545 54.4527 13.5845C53.6184 12.7144 53.2013 11.606 53.2013 10.2592C53.2013 8.9243 53.6184 7.82188 54.4527 6.95181C55.299 6.06986 56.3716 5.62885 57.6707 5.62885C58.9698 5.62885 60.0366 6.06986 60.8708 6.95181C61.7171 7.82188 62.1402 8.9243 62.1402 10.2592C62.1402 11.606 61.7171 12.7144 60.8708 13.5845ZM55.293 10.2592C55.293 12.7978 56.0856 14.0672 57.6707 14.0672C59.2559 14.0672 60.0485 12.7978 60.0485 10.2592C60.0485 7.72055 59.2559 6.45123 57.6707 6.45123C56.0856 6.45123 55.293 7.72055 55.293 10.2592ZM62.9023 14.675V14.1566C63.5101 14.085 63.9034 13.9778 64.0822 13.8348C64.2607 13.6798 64.3501 13.3699 64.3501 12.9051V3.16172C64.3501 2.80416 64.2965 2.55983 64.1892 2.42873C64.0822 2.29762 63.8796 2.23207 63.5816 2.23207C63.3909 2.23207 63.1764 2.24995 62.938 2.2857V1.803L65.6373 1.08789H66.1558V12.9051C66.1558 13.358 66.2337 13.6619 66.3882 13.8169C66.5433 13.9718 66.853 14.085 67.3178 14.1566V14.675H62.9023ZM70.357 14.675L66.4239 10.0447L69.0341 7.95297C69.5704 7.50008 69.8386 7.13652 69.8386 6.86242C69.8386 6.6717 69.7671 6.54656 69.6241 6.48699C69.481 6.41547 69.2429 6.37972 68.9089 6.37972V5.84339H72.6096V6.37972C71.9903 6.46317 71.2631 6.85648 70.4286 7.55965L68.319 9.2938L68.3369 9.38319L71.3046 12.8157C71.6385 13.209 71.9303 13.507 72.1806 13.7096C72.443 13.9122 72.7648 14.0612 73.146 14.1566V14.675H70.357ZM76.5619 14.8896C75.3705 14.8896 74.3872 14.5856 73.6121 13.9778V11.7967H74.2736C74.4408 12.5356 74.7563 13.0958 75.2211 13.4772C75.6859 13.8586 76.2344 14.0493 76.8658 14.0493C77.3664 14.0493 77.7661 13.9301 78.0637 13.6917C78.374 13.4534 78.5285 13.1256 78.5285 12.7085C78.5285 12.3628 78.4391 12.0827 78.2603 11.8682C78.0815 11.6537 77.7897 11.4808 77.3843 11.3497L75.7395 10.7777C74.3572 10.3248 73.6657 9.5024 73.6657 8.31052C73.6657 7.50008 73.976 6.85048 74.5954 6.36184C75.2153 5.8732 76.0141 5.62885 76.991 5.62885C77.9328 5.62885 78.8088 5.81957 79.619 6.20094V8.20325H78.9754C78.8445 7.67886 78.5764 7.24979 78.1709 6.91605C77.7776 6.58231 77.2892 6.41547 76.7049 6.41547C76.2401 6.41547 75.8647 6.52274 75.5786 6.73727C75.3047 6.95181 75.1674 7.23191 75.1674 7.57753C75.1674 8.23307 75.5314 8.69189 76.258 8.95412L78.153 9.63348C79.393 10.0864 80.0123 10.8969 80.0123 12.0649C80.0123 12.923 79.6969 13.6083 79.0648 14.1208C78.4333 14.6333 77.5988 14.8896 76.5619 14.8896ZM80.7977 14.675V14.1566C81.394 14.097 81.781 13.9897 81.9597 13.8348C82.1506 13.6798 82.2458 13.3699 82.2458 12.9051V3.16172C82.2458 2.79224 82.1922 2.54791 82.0849 2.42873C81.9776 2.29762 81.7631 2.23207 81.4413 2.23207C81.2746 2.23207 81.0722 2.24995 80.8334 2.2857V1.803L83.533 1.08789H84.0514V5.39644C84.0514 6.3976 83.9384 7.25573 83.7118 7.97084L83.8012 8.0066C84.0399 7.25573 84.4269 6.6717 84.9632 6.25457C85.5117 5.83745 86.1732 5.62885 86.9477 5.62885C87.7943 5.62885 88.4615 5.87914 88.95 6.37972C89.4505 6.8803 89.7008 7.66098 89.7008 8.72171V12.8872C89.7008 13.364 89.7902 13.6798 89.969 13.8348C90.1599 13.9778 90.5532 14.085 91.1489 14.1566V14.675H86.7689V14.1566C87.2101 14.0731 87.5082 13.9599 87.6628 13.8169C87.8179 13.6619 87.8952 13.4176 87.8952 13.0839V8.98988C87.8952 8.31052 87.7343 7.804 87.4125 7.47026C87.0907 7.12465 86.6559 6.95181 86.1074 6.95181C85.1541 6.95181 84.469 7.36894 84.0514 8.20325V12.9051C84.0514 13.358 84.1293 13.6619 84.2839 13.8169C84.439 13.9718 84.7487 14.085 85.2135 14.1566V14.675H80.7977ZM99.4034 13.5845C98.5689 14.4545 97.5019 14.8896 96.2032 14.8896C94.9039 14.8896 93.8312 14.4545 92.9852 13.5845C92.1507 12.7144 91.7338 11.606 91.7338 10.2592C91.7338 8.9243 92.1507 7.82188 92.9852 6.95181C93.8312 6.06986 94.9039 5.62885 96.2032 5.62885C97.5019 5.62885 98.5689 6.06986 99.4034 6.95181C100.249 7.82188 100.673 8.9243 100.673 10.2592C100.673 11.606 100.249 12.7144 99.4034 13.5845ZM93.8255 10.2592C93.8255 12.7978 94.6179 14.0672 96.2032 14.0672C97.788 14.0672 98.581 12.7978 98.581 10.2592C98.581 7.72055 97.788 6.45123 96.2032 6.45123C94.6179 6.45123 93.8255 7.72055 93.8255 10.2592ZM101.399 18.6975V18.1791C101.994 18.1195 102.382 18.0122 102.561 17.8573C102.751 17.7023 102.847 17.3924 102.847 16.9276V7.91721C102.847 7.63117 102.781 7.42857 102.65 7.30936C102.531 7.17828 102.328 7.11271 102.042 7.11271C101.899 7.11271 101.649 7.12465 101.291 7.14846V6.63001L103.919 5.84339H104.456V6.86242C104.456 7.10077 104.402 7.47026 104.295 7.97084L104.384 7.98872C104.622 7.26167 105.01 6.68958 105.546 6.27245C106.094 5.84339 106.726 5.62885 107.441 5.62885C108.49 5.62885 109.324 6.00428 109.944 6.75515C110.576 7.49408 110.892 8.48336 110.892 9.72287C110.892 11.2365 110.468 12.476 109.622 13.4414C108.788 14.4069 107.721 14.8896 106.422 14.8896C105.754 14.8896 105.164 14.7346 104.652 14.4247V16.9097C104.652 17.3984 104.771 17.7142 105.01 17.8573C105.26 18.0122 105.754 18.1195 106.494 18.1791V18.6975H101.399ZM106.422 14.1387C107.197 14.1387 107.817 13.8049 108.282 13.1375C108.746 12.4582 108.979 11.5405 108.979 10.3843C108.979 9.33549 108.776 8.53099 108.371 7.97084C107.978 7.39875 107.399 7.11271 106.637 7.11271C105.707 7.11271 105.046 7.46433 104.652 8.1675V13.3521C105.141 13.8765 105.731 14.1387 106.422 14.1387ZM114.319 14.4068C114.056 14.681 113.734 14.818 113.353 14.818C112.972 14.818 112.644 14.681 112.37 14.4068C112.096 14.1327 111.959 13.8049 111.959 13.4236C111.959 13.0422 112.096 12.7204 112.37 12.4582C112.644 12.1841 112.972 12.047 113.353 12.047C113.723 12.047 114.045 12.1841 114.319 12.4582C114.592 12.7204 114.73 13.0422 114.73 13.4236C114.73 13.8049 114.592 14.1327 114.319 14.4068ZM123.462 13.5845C122.628 14.4545 121.561 14.8896 120.262 14.8896C118.963 14.8896 117.89 14.4545 117.044 13.5845C116.21 12.7144 115.792 11.606 115.792 10.2592C115.792 8.9243 116.21 7.82188 117.044 6.95181C117.89 6.06986 118.963 5.62885 120.262 5.62885C121.561 5.62885 122.628 6.06986 123.462 6.95181C124.308 7.82188 124.731 8.9243 124.731 10.2592C124.731 11.606 124.308 12.7144 123.462 13.5845ZM117.884 10.2592C117.884 12.7978 118.677 14.0672 120.262 14.0672C121.847 14.0672 122.639 12.7978 122.639 10.2592C122.639 7.72055 121.847 6.45123 120.262 6.45123C118.677 6.45123 117.884 7.72055 117.884 10.2592ZM131.482 5.62885C131.709 5.62885 131.887 5.65267 132.018 5.70036V7.73843H131.679C131.44 7.61923 131.178 7.55965 130.892 7.55965C130.344 7.55965 129.879 7.72649 129.497 8.06023C129.128 8.38203 128.943 8.90643 128.943 9.63348V12.8872C128.943 13.3759 129.063 13.6977 129.301 13.8526C129.551 13.9957 130.046 14.097 130.785 14.1566V14.675H125.689V14.1566C126.286 14.097 126.673 13.9897 126.852 13.8348C127.042 13.6798 127.138 13.3699 127.138 12.9051V7.91721C127.138 7.63117 127.072 7.42857 126.941 7.30936C126.822 7.17828 126.608 7.11271 126.297 7.11271C126.179 7.11271 125.94 7.12465 125.582 7.14846V6.63001L128.21 5.84339H128.747V7.29149C128.747 8.04235 128.723 8.69189 128.675 9.24017H128.8L128.961 8.20325C129.093 7.35706 129.397 6.7194 129.873 6.29033C130.35 5.84932 130.886 5.62885 131.482 5.62885ZM140.649 6.84454C140.137 6.84454 139.589 6.70746 139.005 6.43335L138.933 6.54062C139.875 6.86242 140.345 7.57753 140.345 8.68596C140.345 9.57985 140 10.3009 139.309 10.8492C138.629 11.3974 137.747 11.6715 136.663 11.6715C136.198 11.6715 135.739 11.612 135.286 11.4928C134.655 11.5643 134.339 11.8444 134.339 12.333C134.339 12.8336 134.773 13.1137 135.644 13.1733L138.522 13.3342C140.393 13.4295 141.329 14.1685 141.329 15.551C141.329 16.4687 140.923 17.2554 140.113 17.9109C139.303 18.5783 138.069 18.9121 136.412 18.9121C135.22 18.9121 134.273 18.7095 133.57 18.3042C132.867 17.9109 132.515 17.4103 132.515 16.8025C132.515 15.8848 133.135 15.265 134.374 14.9432V14.8359C133.933 14.7048 133.588 14.4843 133.337 14.1744C133.099 13.8646 132.98 13.507 132.98 13.1018C132.98 12.7204 133.111 12.3688 133.373 12.047C133.636 11.7132 134.017 11.463 134.517 11.2961V11.171C134.04 10.9207 133.665 10.581 133.391 10.1519C133.117 9.71093 132.98 9.21635 132.98 8.66808C132.98 7.77419 133.325 7.04713 134.017 6.48699C134.708 5.9149 135.59 5.62885 136.663 5.62885C137.199 5.62885 137.694 5.70036 138.146 5.84339H141.329V6.84454H140.649ZM135.358 10.4559C135.679 10.8372 136.114 11.0279 136.663 11.0279C137.211 11.0279 137.646 10.8372 137.968 10.4559C138.289 10.0625 138.45 9.46664 138.45 8.66808C138.45 7.86951 138.289 7.27361 137.968 6.8803C137.646 6.47505 137.211 6.27245 136.663 6.27245C136.114 6.27245 135.679 6.47505 135.358 6.8803C135.036 7.27361 134.875 7.86951 134.875 8.66808C134.875 9.46664 135.036 10.0625 135.358 10.4559ZM138.146 15.1041L135.125 14.9611C135.054 14.9611 135 14.9551 134.964 14.9432C134.392 15.2292 134.106 15.6702 134.106 16.2661C134.106 16.8144 134.386 17.2435 134.946 17.5533C135.506 17.8751 136.287 18.036 137.288 18.036C138.182 18.036 138.874 17.893 139.362 17.607C139.851 17.3209 140.095 16.9336 140.095 16.4449C140.095 15.5868 139.446 15.1398 138.146 15.1041Z" fill="#2B0F42"/>
</svg>
